{"glyphs":{"0":{"ha":886,"x_min":24,"x_max":844,"o":"m 434 172 q 608 509 608 172 q 562 757 608 667 q 434 845 517 845 q 307 757 351 845 q 260 509 260 667 q 434 172 260 172 m 24 509 q 133 894 24 755 q 434 1031 240 1031 q 735 894 628 1031 q 844 509 844 755 q 434 -14 844 -14 q 24 509 24 -14 z "},"1":{"ha":560,"x_min":37,"x_max":457,"o":"m 457 0 l 343 3 l 229 0 l 228 4 l 229 7 l 229 699 l 37 522 l 37 800 l 279 1017 l 457 1017 l 457 0 z "},"2":{"ha":761,"x_min":8,"x_max":747,"o":"m 15 0 q 61 285 15 195 q 213 423 100 366 q 420 570 342 488 q 499 720 499 652 q 463 811 499 776 q 366 845 426 845 q 264 812 302 845 q 227 726 227 780 q 270 620 227 674 l 69 517 q 8 726 8 595 q 107 947 8 863 q 366 1031 205 1031 q 627 941 528 1031 q 726 704 726 852 q 659 525 726 614 q 483 380 591 435 q 297 218 340 308 l 741 218 l 745 220 l 747 218 l 746 0 l 15 0 z "},"3":{"ha":750,"x_min":16,"x_max":720,"o":"m 252 332 q 285 228 252 267 q 369 189 316 189 q 448 217 418 189 q 477 292 477 245 q 438 407 477 363 q 335 450 399 450 l 254 450 l 254 625 l 362 625 q 439 659 410 625 q 468 750 468 694 q 437 821 468 793 q 353 846 404 846 q 290 815 315 846 q 267 732 267 784 l 41 732 q 129 949 41 867 q 358 1031 216 1031 q 589 959 502 1031 q 677 768 677 887 q 567 556 677 624 q 720 282 720 473 q 624 68 720 149 q 369 -14 526 -14 q 114 81 210 -14 q 16 332 16 176 l 252 332 z "},"4":{"ha":743,"x_min":3,"x_max":749,"o":"m 442 1017 l 618 1017 l 618 454 l 749 454 l 749 252 l 618 252 l 618 7 l 620 4 l 618 0 l 506 3 l 392 0 l 391 4 l 392 7 l 392 252 l 3 251 l 3 427 l 442 1017 m 392 454 l 392 670 l 231 454 l 392 454 z "},"5":{"ha":745,"x_min":18,"x_max":722,"o":"m 99 1017 l 661 1017 l 648 799 l 644 798 l 642 799 l 317 807 l 294 656 q 391 673 342 673 q 631 575 540 673 q 722 319 722 479 q 625 77 722 170 q 370 -14 528 -14 q 115 81 212 -14 q 18 332 18 176 l 254 332 q 286 228 254 267 q 370 189 317 189 q 449 224 419 189 q 479 319 479 260 q 442 442 479 395 q 349 488 407 488 q 260 427 315 488 l 42 477 l 99 1017 z "},"6":{"ha":753,"x_min":31,"x_max":757,"o":"m 549 758 q 408 854 492 854 q 302 768 339 854 q 266 540 266 685 l 266 538 q 313 646 271 605 q 416 686 355 686 q 663 589 570 686 q 757 332 757 492 q 658 81 757 176 q 396 -14 559 -14 q 31 498 31 -14 q 126 884 31 745 q 408 1031 225 1031 q 590 986 505 1031 q 718 867 675 941 l 549 758 m 281 332 q 396 172 311 172 q 481 216 449 172 q 513 332 513 260 q 475 456 513 408 q 374 502 437 502 q 297 456 321 502 q 281 332 271 410 z "},"7":{"ha":601,"x_min":7,"x_max":620,"o":"m 620 1017 l 620 799 q 400 467 467 651 q 335 3 335 283 l 83 3 q 161 437 83 254 q 365 799 241 620 l 14 799 l 11 798 l 7 799 l 9 907 l 9 1017 l 620 1017 z "},"8":{"ha":789,"x_min":31,"x_max":747,"o":"m 389 643 q 498 749 498 643 q 389 845 498 845 q 283 749 283 845 q 389 643 283 643 m 73 766 q 160 964 73 895 q 389 1031 243 1031 q 628 958 544 1031 q 708 766 708 888 q 576 545 708 608 q 747 273 747 475 q 648 56 747 129 q 389 -14 556 -14 q 118 65 210 -14 q 31 274 31 140 q 202 545 31 476 q 73 766 73 608 m 389 172 q 505 294 505 172 q 389 442 505 442 q 275 290 275 442 q 389 172 275 172 z "},"9":{"ha":753,"x_min":37,"x_max":762,"o":"m 244 259 q 385 163 300 163 q 491 250 454 163 q 526 477 526 332 l 526 479 q 479 372 521 412 q 376 331 438 331 q 130 429 222 331 q 37 685 37 525 q 136 936 37 841 q 396 1031 235 1031 q 762 519 762 1031 q 667 133 762 274 q 385 -14 567 -14 q 203 31 289 -14 q 76 151 118 76 l 244 259 m 510 692 q 396 845 480 845 q 312 802 345 845 q 281 685 281 757 q 319 562 281 609 q 419 515 357 515 q 496 564 472 515 q 510 692 522 612 z "},"\u001d":{"ha":882,"x_min":0,"x_max":0,"o":""},"\u0000":{"ha":339,"x_min":0,"x_max":0,"o":""}," ":{"ha":339,"x_min":0,"x_max":0,"o":""},"!":{"ha":298,"x_min":11,"x_max":282,"o":"m 269 1017 l 241 400 l 49 400 l 30 1017 l 269 1017 m 146 270 q 242 230 202 270 q 282 134 282 190 q 242 39 282 79 q 146 -1 202 -1 q 51 39 91 -1 q 11 134 11 79 q 51 230 11 190 q 146 270 91 270 z "},"\"":{"ha":723,"x_min":125,"x_max":727,"o":"m 456 789 l 454 791 q 482 919 454 864 q 575 1005 510 974 q 727 998 650 1039 q 613 921 598 959 q 688 882 655 914 q 727 787 727 842 q 687 691 727 731 q 591 651 647 651 q 496 691 536 651 q 456 787 456 731 l 456 789 m 126 787 l 125 788 q 153 916 125 861 q 245 1002 180 971 q 397 996 320 1036 q 283 918 269 956 q 358 879 326 911 q 397 784 397 840 q 357 688 397 728 q 262 648 317 648 q 166 688 206 648 q 126 784 126 728 l 126 787 z "},"#":{"ha":936,"x_min":-14,"x_max":940,"o":"m 812 1017 l 781 788 l 940 788 l 917 623 l 758 623 l 728 395 l 873 395 l 849 229 l 705 229 l 674 0 l 480 0 l 511 229 l 346 229 l 315 0 l 119 0 l 151 229 l -14 229 l 11 395 l 174 395 l 203 623 l 54 623 l 77 788 l 227 788 l 258 1017 l 453 1017 l 422 788 l 586 788 l 617 1017 l 812 1017 m 369 395 l 533 395 l 564 623 l 399 623 l 369 395 z "},"$":{"ha":840,"x_min":5,"x_max":823,"o":"m 544 1119 l 544 1010 q 723 952 643 989 q 774 924 757 936 q 793 911 785 918 l 662 738 q 544 796 620 770 l 544 616 q 823 285 823 533 q 753 91 823 167 q 544 -7 680 12 l 544 -102 l 437 -102 l 437 -14 q 374 -8 406 -12 l 374 -102 l 267 -102 l 267 14 q 81 95 160 43 q 34 133 49 117 q 19 148 26 140 l 167 331 q 267 248 205 288 l 267 435 q 5 738 5 518 q 76 924 5 848 q 267 1021 146 998 l 267 1119 l 374 1119 l 374 1031 q 437 1027 404 1031 l 437 1119 l 544 1119 m 374 654 q 437 640 403 646 l 437 823 q 374 829 404 829 l 374 654 m 267 806 q 240 764 240 789 q 267 705 240 731 l 267 806 m 374 198 q 437 186 408 187 l 437 397 q 382 408 411 404 q 374 410 378 410 l 374 198 m 544 201 q 597 278 597 225 q 544 358 597 326 l 544 201 z "},"%":{"ha":1028,"x_min":53,"x_max":975,"o":"m 860 190 q 798 288 860 288 q 735 190 735 288 q 798 92 735 92 q 860 190 860 92 m 798 -14 q 665 42 712 -14 q 620 190 620 96 q 665 338 620 283 q 798 393 712 393 q 930 338 883 393 q 975 190 975 283 q 930 42 975 96 q 798 -14 883 -14 m 168 827 q 231 730 168 730 q 294 827 294 730 q 231 925 294 925 q 168 827 168 925 m 231 1031 q 365 975 317 1031 q 410 827 410 921 q 365 680 410 734 q 231 624 317 624 q 98 680 144 624 q 53 827 53 734 q 98 975 53 921 q 231 1031 144 1031 m 772 1017 l 842 1017 l 256 0 l 186 0 l 772 1017 z "},"&":{"ha":853,"x_min":4,"x_max":836,"o":"m 836 3 q 761 -14 793 -14 q 553 54 644 -14 q 285 -27 441 -27 q 81 47 159 -27 q 4 243 4 122 q 161 503 4 404 q 119 715 119 574 q 186 880 119 818 q 359 943 251 943 q 524 879 461 943 q 586 711 586 815 q 433 486 586 582 l 532 366 q 548 509 549 431 l 734 465 q 677 197 736 313 q 777 172 711 172 l 808 174 l 836 3 m 340 601 q 400 725 411 642 q 321 779 389 808 q 338 600 254 750 l 340 601 m 255 389 q 217 269 217 369 q 243 199 217 225 q 313 172 270 172 q 412 197 368 172 l 255 389 z "},"'":{"ha":321,"x_min":49,"x_max":321,"o":"m 50 880 q 90 976 50 936 q 186 1016 130 1016 q 281 976 241 1016 q 321 880 321 936 q 282 785 321 825 q 208 746 250 753 q 321 669 193 708 q 170 662 244 628 q 77 748 104 693 q 49 876 49 803 l 50 876 l 50 880 z "},"(":{"ha":434,"x_min":96,"x_max":439,"o":"m 439 1000 q 229 454 229 822 q 439 -77 229 100 l 368 -156 q 96 454 96 72 q 368 1078 96 850 l 439 1000 z "},")":{"ha":363,"x_min":-4,"x_max":340,"o":"m -4 -77 q 205 468 208 100 q -4 1000 208 822 l 66 1078 q 338 468 340 850 q 66 -156 340 72 l -4 -77 z "},"*":{"ha":528,"x_min":31,"x_max":496,"o":"m 496 800 l 365 780 l 460 688 l 323 589 l 264 708 l 205 589 l 68 688 l 163 781 l 31 800 l 84 962 l 201 901 l 179 1031 l 349 1031 l 327 901 l 444 962 l 496 800 z "},"+":{"ha":736,"x_min":3,"x_max":735,"o":"m 3 290 l 3 415 l 302 415 l 302 705 l 435 705 l 435 415 l 735 415 l 735 290 l 435 290 l 435 0 l 302 0 l 302 290 l 3 290 z "},",":{"ha":294,"x_min":11,"x_max":283,"o":"m 282 130 l 283 130 q 256 2 283 57 q 163 -84 228 -53 q 11 -77 88 -118 q 125 0 140 -38 q 52 39 83 7 q 11 134 11 79 q 51 230 11 190 q 146 270 91 270 q 242 230 202 270 q 282 134 282 190 l 282 130 z "},"-":{"ha":431,"x_min":37,"x_max":396,"o":"m 37 441 l 396 441 l 396 273 l 37 273 l 37 441 z "},".":{"ha":294,"x_min":11,"x_max":282,"o":"m 146 270 q 242 230 202 270 q 282 134 282 190 q 242 39 282 79 q 146 -1 202 -1 q 51 39 91 -1 q 11 134 11 79 q 51 230 11 190 q 146 270 91 270 z "},"/":{"ha":412,"x_min":-31,"x_max":445,"o":"m 355 1017 l 445 1017 l 57 0 l -31 0 l 355 1017 z "},":":{"ha":294,"x_min":11,"x_max":282,"o":"m 146 703 q 242 663 202 703 q 282 567 282 623 q 242 471 282 511 q 146 431 202 431 q 51 471 91 431 q 11 567 11 511 q 51 663 11 623 q 146 703 91 703 m 146 270 q 242 230 202 270 q 282 134 282 190 q 242 39 282 79 q 146 -1 202 -1 q 51 39 91 -1 q 11 134 11 79 q 51 230 11 190 q 146 270 91 270 z "},";":{"ha":294,"x_min":11,"x_max":283,"o":"m 146 703 q 242 663 202 703 q 282 567 282 623 q 242 471 282 511 q 146 431 202 431 q 51 471 91 431 q 11 567 11 511 q 51 663 11 623 q 146 703 91 703 m 282 130 l 283 130 q 256 2 283 57 q 163 -84 228 -53 q 11 -77 88 -118 q 125 0 140 -38 q 52 39 83 7 q 11 134 11 79 q 51 230 11 190 q 146 270 91 270 q 242 230 202 270 q 282 134 282 190 l 282 130 z "},"<":{"ha":689,"x_min":30,"x_max":640,"o":"m 640 511 l 228 353 l 640 194 l 640 26 l 30 277 l 30 429 l 640 680 l 640 511 z "},"=":{"ha":724,"x_min":22,"x_max":720,"o":"m 720 286 l 720 161 l 22 161 l 22 286 l 720 286 m 720 557 l 720 433 l 22 433 l 22 557 l 720 557 z "},">":{"ha":689,"x_min":50,"x_max":661,"o":"m 50 511 l 50 680 l 661 429 l 661 277 l 50 26 l 50 194 l 463 353 l 50 511 z "},"?":{"ha":673,"x_min":-16,"x_max":669,"o":"m -16 728 q 85 958 -12 883 q 330 1031 182 1031 q 575 955 483 1031 q 669 753 669 878 q 515 525 669 631 q 419 441 444 480 l 411 401 l 216 401 q 239 517 217 456 q 336 629 262 578 q 456 753 456 715 q 422 838 456 806 q 330 871 387 871 q 221 831 264 871 q 176 730 179 792 l -16 728 m 313 270 q 409 230 369 270 q 449 134 449 190 q 409 39 449 79 q 313 -1 369 -1 q 218 39 258 -1 q 178 134 178 79 q 218 230 178 190 q 313 270 258 270 z "},"@":{"ha":1691,"x_min":50,"x_max":1648,"o":"m 1474 -256 q 902 -427 1232 -427 q 285 -209 518 -427 q 50 365 50 8 q 281 939 50 722 q 887 1157 511 1157 q 1439 971 1230 1157 q 1648 484 1648 787 q 1535 111 1648 252 q 1237 -30 1423 -30 q 1024 106 1080 -30 q 764 -16 930 -16 q 509 88 598 -16 q 441 365 420 193 q 571 602 458 513 q 849 692 684 692 q 1044 597 983 692 l 1054 677 l 1240 677 l 1192 282 q 1211 141 1181 194 q 1299 88 1241 88 q 1443 197 1388 88 q 1497 484 1497 307 q 1329 876 1497 727 q 887 1025 1161 1025 q 389 844 578 1025 q 201 365 201 662 q 393 -114 201 68 q 902 -296 587 -296 q 1404 -156 1206 -296 l 1474 -256 m 1006 282 q 829 515 1035 515 q 704 475 754 515 q 644 365 654 433 q 673 216 633 273 q 785 159 711 159 q 939 193 878 159 q 1006 282 1000 227 z "},"A":{"ha":920,"x_min":-34,"x_max":940,"o":"m 334 353 l 572 353 l 453 697 l 334 353 m 273 178 l 212 0 l 90 3 l -34 0 l -34 4 l -31 7 l 334 1017 l 449 1015 l 581 1015 l 940 0 l 817 3 l 694 0 l 633 178 l 273 178 z "},"B":{"ha":922,"x_min":72,"x_max":906,"o":"m 680 574 q 845 473 785 548 q 906 292 906 397 q 821 66 906 134 q 533 0 735 0 l 187 3 l 73 0 l 72 4 l 73 7 l 73 1010 l 72 1015 l 73 1017 l 187 1015 l 301 1015 l 437 1017 q 724 956 639 1017 q 810 750 810 894 q 680 574 810 631 m 388 629 q 524 658 472 629 q 575 734 575 686 q 545 817 575 792 q 446 841 515 841 l 301 838 l 301 629 l 388 629 m 301 179 l 469 178 q 617 210 574 178 q 662 317 662 243 q 597 419 662 381 q 423 458 530 458 l 301 460 l 301 179 z "},"C":{"ha":890,"x_min":24,"x_max":894,"o":"m 894 136 q 521 -14 769 -14 q 161 142 302 -14 q 24 509 24 292 q 161 876 24 726 q 521 1031 302 1031 q 817 948 678 1031 q 882 902 865 918 q 894 890 887 895 l 773 709 q 521 845 633 845 q 338 745 410 845 q 269 509 269 648 q 338 273 269 369 q 521 172 410 172 q 773 315 654 172 l 894 136 z "},"D":{"ha":975,"x_min":72,"x_max":933,"o":"m 187 3 l 73 0 l 72 4 l 73 7 l 73 1010 l 72 1015 l 73 1017 l 187 1015 l 301 1015 l 404 1017 q 933 509 933 1017 q 445 0 933 0 l 301 3 l 187 3 m 301 179 l 430 176 q 689 509 689 176 q 414 841 689 841 l 301 838 l 301 179 z "},"E":{"ha":842,"x_min":72,"x_max":810,"o":"m 807 0 l 187 3 l 73 0 l 72 4 l 73 7 l 73 1010 l 72 1015 l 73 1017 l 187 1015 l 787 1017 l 787 925 l 789 831 l 301 830 l 301 613 l 755 613 l 758 614 l 762 613 l 760 525 l 762 437 l 758 435 l 755 437 l 301 437 l 301 187 l 810 186 l 807 92 l 807 0 z "},"F":{"ha":795,"x_min":72,"x_max":789,"o":"m 301 437 l 301 0 l 187 3 l 73 0 l 72 4 l 73 7 l 73 1010 l 72 1015 l 73 1017 l 187 1015 l 787 1017 l 787 925 l 789 831 l 301 830 l 301 613 l 742 613 l 745 614 l 749 613 l 746 525 l 749 437 l 745 435 l 742 437 l 301 437 z "},"G":{"ha":981,"x_min":24,"x_max":952,"o":"m 541 598 l 952 598 l 952 117 q 568 -14 799 -14 q 174 130 323 -14 q 24 509 24 274 q 174 887 24 743 q 568 1031 323 1031 q 856 949 719 1031 q 922 901 906 920 l 935 890 l 814 709 q 568 845 671 845 q 351 753 433 845 q 269 509 269 661 q 351 264 269 357 q 568 172 433 172 q 735 227 667 172 l 735 414 l 541 414 l 541 598 z "},"H":{"ha":1046,"x_min":72,"x_max":963,"o":"m 849 3 l 735 0 l 734 4 l 735 7 l 735 444 l 301 444 l 301 0 l 187 3 l 73 0 l 72 4 l 73 7 l 73 1010 l 72 1015 l 73 1017 l 187 1015 l 301 1017 l 301 628 l 735 628 l 735 1010 l 734 1015 l 735 1017 l 849 1015 l 962 1017 l 963 1015 l 962 1010 l 962 7 l 963 4 l 962 0 l 849 3 z "},"I":{"ha":400,"x_min":88,"x_max":317,"o":"m 202 3 l 90 0 l 88 4 l 90 7 l 90 1010 l 88 1015 l 90 1017 l 202 1015 l 316 1017 l 317 1015 l 316 1010 l 316 7 l 317 4 l 316 0 l 202 3 z "},"J":{"ha":757,"x_min":22,"x_max":674,"o":"m 248 416 l 248 354 q 347 197 248 197 q 446 298 446 197 l 446 1010 l 445 1015 l 446 1017 l 560 1015 l 673 1017 l 674 1015 l 673 1010 l 673 298 q 590 72 673 155 q 347 -14 505 -14 q 100 60 179 -14 q 22 289 22 132 l 22 416 l 248 416 z "},"K":{"ha":920,"x_min":72,"x_max":939,"o":"m 643 1015 l 647 1017 l 785 1015 l 926 1017 l 301 361 l 301 0 l 187 3 l 73 0 l 72 4 l 73 7 l 73 1010 l 72 1015 l 73 1017 l 187 1015 l 301 1017 l 301 632 l 643 1010 l 643 1015 m 939 4 l 939 0 l 803 3 l 669 0 l 425 488 l 593 666 l 935 7 l 939 4 z "},"L":{"ha":764,"x_min":88,"x_max":757,"o":"m 754 0 l 202 3 l 90 0 l 88 4 l 90 7 l 90 1010 l 88 1015 l 90 1017 l 202 1015 l 316 1017 l 317 1015 l 316 1010 l 316 187 l 757 186 l 754 92 l 754 0 z "},"M":{"ha":1214,"x_min":75,"x_max":1131,"o":"m 1021 3 l 911 0 l 910 4 l 911 7 l 911 750 l 704 0 l 502 0 l 294 722 l 294 7 l 296 4 l 294 0 l 184 3 l 76 0 l 75 4 l 76 7 l 76 1010 l 75 1015 l 76 1017 l 184 1015 l 420 1015 l 601 369 l 774 1015 l 1021 1015 l 1130 1017 l 1131 1015 l 1130 1010 l 1130 7 l 1131 4 l 1130 0 l 1021 3 z "},"N":{"ha":1006,"x_min":72,"x_max":925,"o":"m 696 1017 l 810 1015 l 924 1017 l 925 1015 l 924 1010 l 924 0 l 605 0 l 301 579 l 301 0 l 187 3 l 73 0 l 72 4 l 73 7 l 73 1010 l 72 1015 l 73 1017 l 187 1015 l 326 1015 l 696 309 l 696 1017 z "},"O":{"ha":1040,"x_min":31,"x_max":998,"o":"m 514 172 q 688 264 623 172 q 754 509 754 357 q 685 749 754 652 q 514 845 617 845 q 345 749 412 845 q 275 509 275 652 q 342 264 275 357 q 514 172 407 172 m 31 509 q 170 882 31 731 q 514 1031 308 1031 q 860 882 722 1031 q 998 509 998 731 q 865 130 998 274 q 514 -14 732 -14 q 164 130 297 -14 q 31 509 31 274 z "},"P":{"ha":783,"x_min":72,"x_max":768,"o":"m 168 1015 l 357 1017 q 768 712 768 1017 q 357 397 768 397 l 301 397 l 301 0 l 187 3 l 73 0 l 72 4 l 73 7 l 73 1010 l 72 1015 l 73 1017 l 168 1015 m 366 575 q 540 712 540 575 q 349 841 540 841 l 301 841 l 301 575 l 366 575 z "},"Q":{"ha":1040,"x_min":31,"x_max":998,"o":"m 31 509 q 170 882 31 731 q 514 1031 308 1031 q 860 882 722 1031 q 998 509 998 731 q 834 99 998 244 l 899 -16 l 747 -122 l 673 9 q 514 -14 598 -14 q 164 130 297 -14 q 31 509 31 274 m 515 289 l 667 395 l 715 311 q 754 509 754 393 q 685 749 754 652 q 514 845 617 845 q 345 749 412 845 q 275 509 275 652 q 342 264 275 357 q 514 172 407 172 q 576 182 547 172 l 515 289 z "},"R":{"ha":783,"x_min":72,"x_max":821,"o":"m 559 3 l 301 423 l 301 0 l 187 3 l 73 0 l 72 4 l 73 7 l 73 1010 l 72 1015 l 73 1017 l 168 1015 l 357 1017 q 768 712 768 1017 q 549 446 768 505 l 817 7 l 821 4 l 821 0 l 689 3 l 559 3 m 365 602 q 540 712 540 602 q 349 841 540 841 l 301 841 l 301 602 l 365 602 z "},"S":{"ha":840,"x_min":5,"x_max":823,"o":"m 34 133 q 19 148 26 140 l 167 331 q 297 232 216 275 q 453 184 384 184 q 597 280 597 184 q 382 408 597 376 q 5 738 5 472 q 106 951 5 869 q 368 1031 205 1031 q 723 952 551 1031 q 774 924 757 936 q 793 911 785 918 l 662 738 q 368 829 544 829 q 240 750 240 829 q 445 639 240 671 q 823 285 823 575 q 730 69 823 148 q 453 -14 632 -14 q 81 95 247 -14 q 34 133 49 117 z "},"T":{"ha":742,"x_min":-18,"x_max":762,"o":"m 372 3 l 259 0 l 258 4 l 259 7 l 259 831 l -18 831 q -15 925 -18 868 l -15 1017 l 760 1017 l 760 925 l 762 831 l 486 831 l 486 7 l 487 4 l 486 0 l 372 3 z "},"U":{"ha":982,"x_min":62,"x_max":906,"o":"m 62 1015 l 64 1017 l 178 1015 l 292 1017 l 290 430 q 484 197 290 197 q 678 430 678 197 l 678 1010 l 677 1015 l 678 1017 l 792 1015 l 905 1017 l 906 1015 l 905 1010 l 905 391 q 484 -14 905 -14 q 64 391 64 -14 l 64 1010 l 62 1015 z "},"V":{"ha":852,"x_min":-31,"x_max":871,"o":"m 627 1017 l 749 1015 l 871 1017 l 534 0 l 315 0 l -31 1017 l 92 1015 l 214 1017 l 423 332 l 627 1017 z "},"W":{"ha":1109,"x_min":-31,"x_max":1128,"o":"m 884 1017 l 1006 1015 l 1128 1017 l 910 0 l 692 0 l 548 582 l 399 0 l 179 0 l -31 1015 l -30 1017 l 92 1015 l 214 1017 l 312 480 l 439 1017 l 659 1017 l 792 480 l 884 1017 z "},"X":{"ha":811,"x_min":-27,"x_max":844,"o":"m 582 1017 l 712 1015 l 844 1017 l 534 502 l 825 0 l 705 3 l 587 0 l 586 5 l 415 302 l 235 0 l 104 3 l -27 0 l 286 524 l 5 1010 l 1 1015 l 1 1017 l 119 1015 l 237 1017 l 407 723 l 582 1017 z "},"Y":{"ha":799,"x_min":-22,"x_max":819,"o":"m 593 1015 l 595 1017 l 707 1015 l 819 1017 l 513 448 l 513 0 l 399 3 l 285 0 l 283 4 l 285 7 l 285 448 l -22 1017 l 91 1015 l 202 1017 l 205 1015 l 205 1010 l 399 646 l 593 1010 l 593 1015 z "},"Z":{"ha":823,"x_min":30,"x_max":796,"o":"m 796 186 l 793 92 l 793 0 l 30 0 l 30 186 l 509 831 l 50 831 q 53 925 50 868 l 53 1017 l 796 1017 l 796 831 l 319 186 l 796 186 z "},"[":{"ha":449,"x_min":130,"x_max":439,"o":"m 263 -41 l 439 -41 l 439 -156 l 130 -156 l 130 1017 l 439 1017 l 439 902 l 263 902 l 263 -41 z "},"\\":{"ha":450,"x_min":-31,"x_max":481,"o":"m -31 1017 l 57 1017 l 481 0 l 393 0 l -31 1017 z "},"]":{"ha":456,"x_min":9,"x_max":319,"o":"m 9 902 l 9 1017 l 319 1017 l 319 -156 l 9 -156 l 9 -41 l 186 -41 l 186 902 l 9 902 z "},"_":{"ha":859,"x_min":37,"x_max":823,"o":"m 37 -73 l 823 -73 l 823 -198 l 37 -198 l 37 -73 z "},"a":{"ha":682,"x_min":11,"x_max":694,"o":"m 38 593 q 326 719 123 719 q 613 438 613 719 l 613 195 q 621 157 613 163 q 694 153 631 151 l 694 3 q 490 9 533 0 q 420 66 434 22 q 237 -14 363 -14 q 11 214 11 -14 q 62 339 11 285 q 199 410 115 392 q 410 525 410 450 q 326 552 410 552 q 199 483 244 552 l 38 593 m 410 308 q 320 279 373 290 q 216 221 216 256 q 300 127 216 127 q 410 263 399 127 l 410 308 z "},"b":{"ha":751,"x_min":52,"x_max":715,"o":"m 373 155 q 461 209 427 155 q 494 353 494 263 q 461 496 494 442 q 373 551 427 551 q 256 353 256 551 q 373 155 256 155 m 153 3 l 52 0 l 52 1017 l 103 1016 l 256 1017 l 256 644 q 441 719 326 719 q 639 618 564 719 q 715 353 715 517 q 639 87 715 189 q 441 -14 564 -14 q 256 61 326 -14 l 256 3 l 153 3 z "},"c":{"ha":677,"x_min":23,"x_max":669,"o":"m 669 102 q 381 -14 585 -14 q 122 75 214 -14 q 23 353 23 170 q 122 631 23 536 q 381 719 214 719 q 593 654 498 719 q 655 601 639 621 l 667 587 l 521 454 q 381 559 423 559 q 244 353 244 559 q 381 155 244 155 q 518 239 457 155 l 669 102 z "},"d":{"ha":770,"x_min":23,"x_max":708,"o":"m 23 353 q 102 618 23 518 q 308 719 180 719 q 503 631 426 719 l 503 1010 l 502 1015 l 503 1017 l 555 1016 l 707 1017 l 707 7 l 708 4 l 707 0 l 656 1 l 503 0 l 503 75 q 308 -14 426 -14 q 102 87 180 -14 q 23 353 23 189 m 503 353 q 468 496 503 442 q 376 551 433 551 q 281 496 316 551 q 244 353 244 442 q 281 209 244 263 q 376 155 316 155 q 468 209 433 155 q 503 353 503 263 z "},"e":{"ha":705,"x_min":23,"x_max":708,"o":"m 680 104 q 351 -14 606 -14 q 114 75 198 -14 q 23 353 23 170 q 118 631 23 536 q 366 719 206 719 q 708 339 708 719 l 244 339 q 351 155 248 155 q 517 228 473 155 l 680 104 m 481 480 q 366 559 448 559 q 263 480 294 559 l 481 480 z "},"f":{"ha":521,"x_min":9,"x_max":483,"o":"m 106 545 l 9 545 l 9 705 l 106 705 l 106 773 q 159 962 106 905 q 338 1017 213 1017 l 483 1017 l 481 849 l 479 848 l 475 849 l 392 850 q 311 773 311 852 l 311 705 l 480 705 l 480 545 l 311 545 l 311 0 l 208 3 l 106 0 l 106 545 z "},"g":{"ha":757,"x_min":23,"x_max":694,"o":"m 220 -27 q 269 -96 232 -68 q 350 -126 307 -126 q 490 0 490 -126 l 490 83 q 301 0 415 0 q 23 353 23 0 q 301 719 23 719 q 490 633 415 719 l 490 703 l 591 703 l 693 705 l 694 703 l 693 699 l 693 87 q 368 -294 693 -294 q 145 -243 241 -294 q 31 -123 52 -193 l 220 -27 m 369 551 q 244 353 244 551 q 369 168 244 168 q 456 218 423 168 q 490 353 490 270 q 456 496 490 442 q 369 551 423 551 z "},"h":{"ha":738,"x_min":52,"x_max":675,"o":"m 572 3 l 471 0 l 469 4 l 471 7 l 471 427 q 377 528 471 528 q 290 496 323 528 q 256 414 256 465 l 256 0 l 153 3 l 52 0 l 52 1017 l 118 1016 l 256 1017 l 256 624 q 456 712 331 712 q 614 640 557 712 q 674 427 674 566 l 674 7 l 675 4 l 674 0 l 572 3 z "},"i":{"ha":305,"x_min":5,"x_max":277,"o":"m 141 3 l 39 0 l 38 4 l 39 7 l 39 699 l 38 703 l 39 705 l 141 703 l 141 705 l 243 705 l 243 7 l 244 4 l 243 0 l 141 3 m 141 1062 q 237 1022 197 1062 q 277 926 277 982 q 237 831 277 871 q 141 791 197 791 q 45 831 85 791 q 5 926 5 871 q 45 1022 5 982 q 141 1062 85 1062 z "},"j":{"ha":305,"x_min":-76,"x_max":277,"o":"m -28 -102 q 26 -81 11 -102 q 39 0 39 -60 l 39 699 l 38 703 l 39 705 l 141 703 l 141 705 l 243 705 l 243 0 q 198 -214 243 -157 q 26 -270 153 -270 l -76 -270 l -76 -102 l -28 -102 m 141 1062 q 237 1022 197 1062 q 277 926 277 982 q 237 831 277 871 q 141 791 197 791 q 45 831 85 791 q 5 926 5 871 q 45 1022 5 982 q 141 1062 85 1062 z "},"k":{"ha":644,"x_min":52,"x_max":663,"o":"m 663 4 l 663 0 l 540 3 l 418 3 l 311 323 l 256 263 l 256 0 l 153 3 l 52 0 l 52 1017 l 118 1016 l 256 1017 l 256 517 l 406 700 l 406 703 l 408 705 l 533 703 l 659 705 l 463 490 l 661 7 l 663 4 z "},"l":{"ha":305,"x_min":38,"x_max":244,"o":"m 141 3 l 39 0 l 38 4 l 39 7 l 39 1010 l 38 1015 l 39 1017 l 141 1015 l 141 1017 l 243 1017 l 243 7 l 244 4 l 243 0 l 141 3 z "},"m":{"ha":1146,"x_min":52,"x_max":1090,"o":"m 987 3 l 886 0 l 884 4 l 886 7 l 886 427 q 795 528 886 528 q 711 496 743 528 q 678 414 678 464 l 678 0 l 576 3 l 473 0 l 473 427 q 378 528 473 528 q 290 496 324 528 q 256 414 256 465 l 256 0 l 153 3 l 52 0 l 52 705 l 118 704 l 256 705 l 256 623 q 457 712 331 712 q 651 585 597 712 q 873 712 722 712 q 1029 640 972 712 q 1089 427 1089 566 l 1089 7 l 1090 4 l 1089 0 l 987 3 z "},"n":{"ha":731,"x_min":52,"x_max":675,"o":"m 572 3 l 471 0 l 469 4 l 471 7 l 471 427 q 377 528 471 528 q 290 496 323 528 q 256 414 256 465 l 256 0 l 153 3 l 52 0 l 52 705 l 118 704 l 256 705 l 256 624 q 456 712 331 712 q 614 640 557 712 q 674 427 674 566 l 674 7 l 675 4 l 674 0 l 572 3 z "},"o":{"ha":736,"x_min":23,"x_max":701,"o":"m 362 137 q 480 353 480 137 q 362 568 480 568 q 244 353 244 568 q 362 137 244 137 m 23 353 q 117 631 23 536 q 362 719 203 719 q 620 618 533 719 q 701 353 701 524 q 608 75 701 170 q 362 -14 521 -14 q 106 87 193 -14 q 23 353 23 182 z "},"p":{"ha":751,"x_min":52,"x_max":715,"o":"m 373 155 q 461 209 427 155 q 494 353 494 263 q 461 496 494 442 q 373 551 427 551 q 256 353 256 551 q 373 155 256 155 m 52 705 l 118 704 l 256 705 l 256 644 q 441 719 326 719 q 639 618 564 719 q 715 353 715 517 q 639 87 715 189 q 441 -14 564 -14 q 256 61 326 -14 l 256 -210 l 153 -208 l 52 -210 l 52 705 z "},"q":{"ha":770,"x_min":23,"x_max":708,"o":"m 23 353 q 102 618 23 518 q 308 719 180 719 q 503 631 426 719 l 503 703 l 605 703 l 707 705 l 708 703 l 707 699 l 707 -203 l 708 -206 l 707 -210 l 605 -208 l 503 -210 l 502 -206 l 503 -203 l 503 75 q 308 -14 426 -14 q 102 87 180 -14 q 23 353 23 189 m 503 353 q 468 496 503 442 q 376 551 433 551 q 281 496 316 551 q 244 353 244 442 q 281 209 244 263 q 376 155 316 155 q 468 209 433 155 q 503 353 503 263 z "},"r":{"ha":538,"x_min":52,"x_max":480,"o":"m 446 484 q 256 292 256 484 l 256 0 l 153 3 l 52 0 l 52 705 l 118 704 l 256 705 l 256 598 q 467 705 327 705 l 480 705 l 480 484 l 446 484 z "},"s":{"ha":625,"x_min":1,"x_max":616,"o":"m 60 60 q 1 106 18 83 l 159 225 q 321 153 214 153 q 414 196 414 153 q 293 262 414 239 q 102 354 168 286 q 37 511 37 419 q 113 656 37 602 q 312 712 187 712 q 522 647 415 712 q 572 610 557 625 q 586 595 581 602 l 448 479 q 312 562 377 562 q 231 514 231 562 q 340 444 231 467 q 547 350 473 418 q 616 194 616 285 q 534 49 616 103 q 321 -7 454 -7 q 64 57 180 -7 l 60 60 z "},"t":{"ha":441,"x_min":-3,"x_max":396,"o":"m 396 545 l 270 545 l 270 203 q 277 175 270 180 q 320 167 286 167 l 396 167 l 396 0 l 231 0 q 90 45 119 0 q 66 203 66 79 l 66 545 l -3 545 l -3 705 l 66 705 l 66 1019 l 270 1019 l 270 705 l 396 705 l 396 545 z "},"u":{"ha":707,"x_min":45,"x_max":646,"o":"m 644 703 l 644 7 l 646 4 l 644 0 l 593 1 l 441 0 l 441 103 q 259 -14 376 -14 q 90 64 138 -14 q 45 292 45 133 l 45 705 l 146 703 l 250 703 l 250 292 q 323 171 250 171 q 408 218 376 171 q 441 343 441 266 l 441 699 l 439 703 l 441 705 l 543 703 l 644 703 z "},"v":{"ha":601,"x_min":-33,"x_max":620,"o":"m 389 705 l 505 703 l 620 705 l 400 0 l 179 0 l -33 705 l 83 703 l 198 705 l 290 288 l 389 705 z "},"w":{"ha":921,"x_min":-31,"x_max":940,"o":"m 724 705 l 831 703 l 940 705 l 750 0 l 547 0 l 454 361 l 362 0 l 159 0 l -31 705 l 77 703 l 184 705 l 266 271 l 366 705 l 543 705 l 643 271 l 724 705 z "},"x":{"ha":652,"x_min":-106,"x_max":678,"o":"m 370 705 l 492 703 l 617 705 l 410 397 l 677 4 l 678 0 l 555 3 l 431 0 l 429 7 l 288 216 l 144 4 l 142 0 l 19 3 l -106 0 l 164 399 l -45 705 l 80 703 l 203 705 l 206 703 l 206 699 l 286 579 l 368 699 l 366 699 l 370 705 z "},"y":{"ha":600,"x_min":-33,"x_max":618,"o":"m 388 705 l 503 703 l 618 705 l 349 -153 q 273 -248 328 -224 q 83 -274 218 -274 l 15 -274 l 15 -96 l 83 -96 q 190 -76 183 -96 l 199 -41 l -33 705 l 83 703 l 198 705 l 281 282 l 388 705 z "},"z":{"ha":559,"x_min":9,"x_max":566,"o":"m 544 705 l 544 582 l 258 160 l 566 160 l 563 80 l 563 0 l 9 0 l 9 123 l 286 545 l 30 545 q 33 625 30 579 l 33 705 l 544 705 z "},"{":{"ha":415,"x_min":43,"x_max":407,"o":"m 407 902 l 312 902 q 263 830 263 902 l 263 581 q 190 431 263 463 q 263 281 263 399 l 263 31 q 312 -41 263 -41 l 407 -41 l 407 -156 l 312 -156 q 180 -104 231 -156 q 130 31 130 -53 l 132 307 q 57 382 132 382 l 43 382 l 43 479 l 57 479 q 132 555 132 479 q 130 830 130 555 q 180 966 130 914 q 312 1017 231 1017 l 407 1017 l 407 902 z "},"|":{"ha":191,"x_min":30,"x_max":163,"o":"m 163 1085 l 163 -339 l 30 -339 l 30 1085 l 163 1085 z "},"}":{"ha":415,"x_min":9,"x_max":373,"o":"m 9 902 l 104 902 q 152 830 155 902 l 153 581 q 227 431 153 463 q 153 281 153 399 l 152 31 q 104 -41 155 -41 l 9 -41 l 9 -156 l 104 -156 q 236 -104 186 -156 q 285 31 286 -53 l 285 307 q 359 382 285 382 l 373 382 l 373 479 l 359 479 q 285 555 285 479 q 285 830 288 555 q 236 966 286 914 q 104 1017 186 1017 l 9 1017 l 9 902 z "}," ":{"ha":298,"x_min":0,"x_max":0,"o":""},"¡":{"ha":298,"x_min":11,"x_max":282,"o":"m 30 -312 l 30 274 l 269 275 l 269 -312 l 30 -312 m 146 703 q 242 663 202 703 q 282 567 282 623 q 242 471 282 511 q 146 431 202 431 q 51 471 91 431 q 11 567 11 511 q 51 663 11 623 q 146 703 91 703 z "},"¢":{"ha":671,"x_min":23,"x_max":693,"o":"m 491 420 q 431 537 469 505 l 431 168 q 513 239 479 191 l 663 102 q 431 -11 595 8 l 431 -102 l 326 -102 l 326 -11 q 23 353 23 19 q 326 716 23 686 l 326 807 l 431 807 l 431 716 q 670 507 620 693 q 651 374 693 425 q 517 324 608 324 q 491 373 491 324 l 491 420 m 326 548 q 244 353 244 509 q 326 165 244 202 l 326 548 z "},"«":{"ha":764,"x_min":53,"x_max":690,"o":"m 690 637 l 500 353 l 690 68 l 513 68 l 323 353 l 513 637 l 690 637 m 420 637 l 231 353 l 420 68 l 243 68 l 53 353 l 243 637 l 420 637 z "},"¬":{"ha":684,"x_min":37,"x_max":647,"o":"m 444 69 l 444 273 l 37 273 l 37 441 l 647 441 l 647 69 l 444 69 z "},"·":{"ha":294,"x_min":14,"x_max":285,"o":"m 149 486 q 245 446 205 486 q 285 350 285 406 q 245 254 285 294 q 149 214 205 214 q 54 254 94 214 q 14 350 14 294 q 54 446 14 406 q 149 486 94 486 z "},"»":{"ha":739,"x_min":8,"x_max":644,"o":"m 454 637 l 644 353 l 454 68 l 278 68 l 468 353 l 278 637 l 454 637 m 186 637 l 376 353 l 186 68 l 8 68 l 198 353 l 8 637 l 186 637 z "},"¿":{"ha":685,"x_min":16,"x_max":707,"o":"m 481 484 l 259 484 l 259 705 l 481 705 l 481 484 m 707 -56 q 600 -251 697 -178 q 355 -326 503 -326 q 110 -250 203 -326 q 16 -47 16 -172 q 205 209 16 75 q 260 274 248 239 q 273 404 273 311 l 468 404 q 446 189 468 250 q 349 76 423 127 q 229 -47 229 -9 q 264 -133 229 -100 q 355 -165 298 -165 q 464 -126 420 -165 q 511 -22 506 -87 l 707 -56 z "},"À":{"ha":920,"x_min":-34,"x_max":940,"o":"m 228 1329 l 494 1329 l 555 1126 l 369 1126 l 228 1329 m 334 353 l 572 353 l 453 697 l 334 353 m 273 178 l 212 0 l 90 3 l -34 0 l -34 4 l -31 7 l 334 1017 l 449 1015 l 581 1015 l 940 0 l 817 3 l 694 0 l 633 178 l 273 178 z "},"Á":{"ha":920,"x_min":-34,"x_max":940,"o":"m 431 1329 l 697 1329 l 555 1126 l 369 1126 l 431 1329 m 334 353 l 572 353 l 453 697 l 334 353 m 273 178 l 212 0 l 90 3 l -34 0 l -34 4 l -31 7 l 334 1017 l 449 1015 l 581 1015 l 940 0 l 817 3 l 694 0 l 633 178 l 273 178 z "},"Â":{"ha":920,"x_min":-34,"x_max":940,"o":"m 418 1126 l 232 1126 l 368 1329 l 557 1329 l 693 1126 l 507 1126 l 463 1169 l 418 1126 m 334 353 l 572 353 l 453 697 l 334 353 m 273 178 l 212 0 l 90 3 l -34 0 l -34 4 l -31 7 l 334 1017 l 449 1015 l 581 1015 l 940 0 l 817 3 l 694 0 l 633 178 l 273 178 z "},"Ã":{"ha":920,"x_min":-34,"x_max":940,"o":"m 203 1126 q 248 1283 203 1223 q 368 1343 293 1343 q 477 1308 431 1343 q 544 1271 524 1271 q 571 1329 571 1271 l 722 1329 q 677 1172 722 1232 q 557 1112 632 1112 q 448 1149 494 1112 q 381 1184 401 1184 q 354 1126 354 1184 l 203 1126 m 334 353 l 572 353 l 453 697 l 334 353 m 273 178 l 212 0 l 90 3 l -34 0 l -34 4 l -31 7 l 334 1017 l 449 1015 l 581 1015 l 940 0 l 817 3 l 694 0 l 633 178 l 273 178 z "},"Ä":{"ha":920,"x_min":-34,"x_max":940,"o":"m 469 1347 l 690 1347 l 690 1126 l 469 1126 l 469 1347 m 235 1347 l 456 1347 l 456 1126 l 235 1126 l 235 1347 m 334 353 l 572 353 l 453 697 l 334 353 m 273 178 l 212 0 l 90 3 l -34 0 l -34 4 l -31 7 l 334 1017 l 449 1015 l 581 1015 l 940 0 l 817 3 l 694 0 l 633 178 l 273 178 z "},"Å":{"ha":920,"x_min":-34,"x_max":940,"o":"m 463 1219 q 481 1241 481 1219 q 463 1263 481 1263 q 444 1241 444 1263 q 463 1219 444 1219 m 342 1241 q 463 1356 342 1356 q 583 1241 583 1356 q 463 1126 583 1126 q 342 1241 342 1126 m 334 354 l 572 353 l 453 697 l 334 354 m 273 178 l 212 0 l 90 3 l -34 0 l -34 4 l -31 7 l 334 1017 l 449 1015 l 581 1015 l 940 0 l 817 3 l 694 0 l 633 178 l 273 178 z "},"Ç":{"ha":890,"x_min":24,"x_max":894,"o":"m 894 136 q 521 -14 769 -14 q 475 -12 498 -14 l 463 -53 q 479 -49 471 -49 q 581 -92 541 -49 q 618 -205 618 -134 q 575 -316 618 -274 q 463 -359 533 -359 q 328 -264 362 -359 l 407 -202 q 457 -263 430 -263 q 503 -205 503 -263 q 463 -146 503 -146 q 429 -170 435 -146 l 368 -133 l 406 -1 q 127 182 233 38 q 24 509 24 323 q 161 876 24 726 q 521 1031 302 1031 q 817 948 678 1031 q 882 902 865 918 q 894 890 887 895 l 773 709 q 521 845 633 845 q 338 745 410 845 q 269 509 269 648 q 338 273 269 369 q 521 172 410 172 q 773 315 654 172 l 894 136 z "},"È":{"ha":842,"x_min":72,"x_max":810,"o":"m 195 1329 l 461 1329 l 524 1126 l 336 1126 l 195 1329 m 807 0 l 187 3 l 73 0 l 72 4 l 73 7 l 73 1010 l 72 1015 l 73 1017 l 187 1015 l 787 1017 l 787 925 l 789 831 l 301 830 l 301 613 l 755 613 l 758 614 l 762 613 l 760 525 l 762 437 l 758 435 l 755 437 l 301 437 l 301 187 l 810 186 l 807 92 l 807 0 z "},"É":{"ha":842,"x_min":72,"x_max":810,"o":"m 399 1329 l 665 1329 l 524 1126 l 336 1126 l 399 1329 m 807 0 l 187 3 l 73 0 l 72 4 l 73 7 l 73 1010 l 72 1015 l 73 1017 l 187 1015 l 787 1017 l 787 925 l 789 831 l 301 830 l 301 613 l 755 613 l 758 614 l 762 613 l 760 525 l 762 437 l 758 435 l 755 437 l 301 437 l 301 187 l 810 186 l 807 92 l 807 0 z "},"Ê":{"ha":842,"x_min":72,"x_max":810,"o":"m 385 1126 l 199 1126 l 335 1329 l 525 1329 l 661 1126 l 475 1126 l 430 1169 l 385 1126 m 807 0 l 187 3 l 73 0 l 72 4 l 73 7 l 73 1010 l 72 1015 l 73 1017 l 187 1015 l 787 1017 l 787 925 l 789 831 l 301 830 l 301 613 l 755 613 l 758 614 l 762 613 l 760 525 l 762 437 l 758 435 l 755 437 l 301 437 l 301 187 l 810 186 l 807 92 l 807 0 z "},"Ë":{"ha":842,"x_min":72,"x_max":810,"o":"m 437 1347 l 658 1347 l 658 1126 l 437 1126 l 437 1347 m 202 1347 l 423 1347 l 423 1126 l 202 1126 l 202 1347 m 807 0 l 187 3 l 73 0 l 72 4 l 73 7 l 73 1010 l 72 1015 l 73 1017 l 187 1015 l 787 1017 l 787 925 l 789 831 l 301 830 l 301 613 l 755 613 l 758 614 l 762 613 l 760 525 l 762 437 l 758 435 l 755 437 l 301 437 l 301 187 l 810 186 l 807 92 l 807 0 z "},"Ì":{"ha":400,"x_min":-33,"x_max":317,"o":"m -33 1329 l 233 1329 l 296 1126 l 110 1126 l -33 1329 m 202 3 l 90 0 l 88 4 l 90 7 l 90 1010 l 88 1015 l 90 1017 l 202 1015 l 316 1017 l 317 1015 l 316 1010 l 316 7 l 317 4 l 316 0 l 202 3 z "},"Í":{"ha":400,"x_min":88,"x_max":437,"o":"m 171 1329 l 437 1329 l 296 1126 l 110 1126 l 171 1329 m 202 3 l 90 0 l 88 4 l 90 7 l 90 1010 l 88 1015 l 90 1017 l 202 1015 l 316 1017 l 317 1015 l 316 1010 l 316 7 l 317 4 l 316 0 l 202 3 z "},"Î":{"ha":400,"x_min":-28,"x_max":433,"o":"m 159 1126 l -28 1126 l 107 1329 l 297 1329 l 433 1126 l 247 1126 l 202 1169 l 159 1126 m 202 3 l 90 0 l 88 4 l 90 7 l 90 1010 l 88 1015 l 90 1017 l 202 1015 l 316 1017 l 317 1015 l 316 1010 l 316 7 l 317 4 l 316 0 l 202 3 z "},"Ï":{"ha":400,"x_min":-26,"x_max":431,"o":"m 209 1347 l 431 1347 l 431 1126 l 209 1126 l 209 1347 m -26 1347 l 197 1347 l 197 1126 l -26 1126 l -26 1347 m 202 3 l 90 0 l 88 4 l 90 7 l 90 1010 l 88 1015 l 90 1017 l 202 1015 l 316 1017 l 317 1015 l 316 1010 l 316 7 l 317 4 l 316 0 l 202 3 z "},"Ñ":{"ha":1006,"x_min":72,"x_max":925,"o":"m 239 1126 q 285 1283 239 1223 q 403 1343 330 1343 q 513 1308 467 1343 q 579 1271 559 1271 q 608 1329 608 1271 l 758 1329 q 713 1172 758 1232 q 594 1112 667 1112 q 484 1149 530 1112 q 418 1184 438 1184 q 391 1126 391 1184 l 239 1126 m 696 1017 l 810 1015 l 924 1017 l 925 1015 l 924 1010 l 924 0 l 605 0 l 301 579 l 301 0 l 187 3 l 73 0 l 72 4 l 73 7 l 73 1010 l 72 1015 l 73 1017 l 187 1015 l 326 1015 l 696 309 l 696 1017 z "},"Ò":{"ha":1040,"x_min":31,"x_max":998,"o":"m 279 1329 l 545 1329 l 608 1126 l 422 1126 l 279 1329 m 514 172 q 688 264 623 172 q 754 509 754 357 q 685 749 754 652 q 514 845 617 845 q 345 749 412 845 q 275 509 275 652 q 342 264 275 357 q 514 172 407 172 m 31 509 q 170 882 31 731 q 514 1031 308 1031 q 860 882 722 1031 q 998 509 998 731 q 865 130 998 274 q 514 -14 732 -14 q 164 130 297 -14 q 31 509 31 274 z "},"Ó":{"ha":1040,"x_min":31,"x_max":998,"o":"m 483 1329 l 749 1329 l 608 1126 l 422 1126 l 483 1329 m 514 172 q 688 264 623 172 q 754 509 754 357 q 685 749 754 652 q 514 845 617 845 q 345 749 412 845 q 275 509 275 652 q 342 264 275 357 q 514 172 407 172 m 31 509 q 170 882 31 731 q 514 1031 308 1031 q 860 882 722 1031 q 998 509 998 731 q 865 130 998 274 q 514 -14 732 -14 q 164 130 297 -14 q 31 509 31 274 z "},"Ô":{"ha":1040,"x_min":31,"x_max":998,"o":"m 471 1126 l 283 1126 l 419 1329 l 609 1329 l 745 1126 l 559 1126 l 514 1169 l 471 1126 m 514 172 q 688 264 623 172 q 754 509 754 357 q 685 749 754 652 q 514 845 617 845 q 345 749 412 845 q 275 509 275 652 q 342 264 275 357 q 514 172 407 172 m 31 509 q 170 882 31 731 q 514 1031 308 1031 q 860 882 722 1031 q 998 509 998 731 q 865 130 998 274 q 514 -14 732 -14 q 164 130 297 -14 q 31 509 31 274 z "},"Õ":{"ha":1040,"x_min":31,"x_max":998,"o":"m 255 1126 q 301 1283 255 1223 q 419 1343 346 1343 q 529 1308 483 1343 q 595 1271 575 1271 q 623 1329 623 1271 l 773 1329 q 728 1172 773 1232 q 609 1112 684 1112 q 500 1149 547 1112 q 434 1184 454 1184 q 406 1126 406 1184 l 255 1126 m 514 172 q 688 264 623 172 q 754 509 754 357 q 685 749 754 652 q 514 845 617 845 q 345 749 412 845 q 275 509 275 652 q 342 264 275 357 q 514 172 407 172 m 31 509 q 170 882 31 731 q 514 1031 308 1031 q 860 882 722 1031 q 998 509 998 731 q 865 130 998 274 q 514 -14 732 -14 q 164 130 297 -14 q 31 509 31 274 z "},"Ö":{"ha":1040,"x_min":31,"x_max":998,"o":"m 521 1347 l 743 1347 l 743 1126 l 521 1126 l 521 1347 m 286 1347 l 509 1347 l 509 1126 l 286 1126 l 286 1347 m 514 172 q 688 264 623 172 q 754 509 754 357 q 685 749 754 652 q 514 845 617 845 q 345 749 412 845 q 275 509 275 652 q 342 264 275 357 q 514 172 407 172 m 31 509 q 170 882 31 731 q 514 1031 308 1031 q 860 882 722 1031 q 998 509 998 731 q 865 130 998 274 q 514 -14 732 -14 q 164 130 297 -14 q 31 509 31 274 z "},"Ø":{"ha":1040,"x_min":31,"x_max":998,"o":"m 514 172 q 688 264 623 172 q 754 509 754 357 q 720 686 754 606 l 361 240 q 514 172 423 172 m 31 509 q 170 882 31 731 q 514 1031 308 1031 q 798 937 674 1031 l 872 1031 l 998 1031 l 869 871 q 998 509 998 723 q 865 130 998 274 q 514 -14 732 -14 q 228 73 349 -14 l 157 -14 l 31 -14 l 155 140 q 31 509 31 283 m 665 774 q 514 845 601 845 q 345 749 412 845 q 275 509 275 652 q 307 328 275 407 l 665 774 z "},"Ù":{"ha":982,"x_min":62,"x_max":906,"o":"m 250 1316 l 515 1316 l 578 1112 l 392 1112 l 250 1316 m 62 1015 l 64 1017 l 178 1015 l 292 1017 l 290 430 q 484 197 290 197 q 678 430 678 197 l 678 1010 l 677 1015 l 678 1017 l 792 1015 l 905 1017 l 906 1015 l 905 1010 l 905 391 q 484 -14 905 -14 q 64 391 64 -14 l 64 1010 l 62 1015 z "},"Ú":{"ha":982,"x_min":62,"x_max":906,"o":"m 453 1316 l 719 1316 l 578 1112 l 392 1112 l 453 1316 m 62 1015 l 64 1017 l 178 1015 l 292 1017 l 290 430 q 484 197 290 197 q 678 430 678 197 l 678 1010 l 677 1015 l 678 1017 l 792 1015 l 905 1017 l 906 1015 l 905 1010 l 905 391 q 484 -14 905 -14 q 64 391 64 -14 l 64 1010 l 62 1015 z "},"Û":{"ha":982,"x_min":62,"x_max":906,"o":"m 439 1112 l 254 1112 l 389 1316 l 579 1316 l 715 1112 l 529 1112 l 484 1156 l 439 1112 m 62 1015 l 64 1017 l 178 1015 l 292 1017 l 290 430 q 484 197 290 197 q 678 430 678 197 l 678 1010 l 677 1015 l 678 1017 l 792 1015 l 905 1017 l 906 1015 l 905 1010 l 905 391 q 484 -14 905 -14 q 64 391 64 -14 l 64 1010 l 62 1015 z "},"Ü":{"ha":982,"x_min":62,"x_max":906,"o":"m 491 1333 l 712 1333 l 712 1112 l 491 1112 l 491 1333 m 256 1333 l 477 1333 l 477 1112 l 256 1112 l 256 1333 m 62 1015 l 64 1017 l 178 1015 l 292 1017 l 290 430 q 484 197 290 197 q 678 430 678 197 l 678 1010 l 677 1015 l 678 1017 l 792 1015 l 905 1017 l 906 1015 l 905 1010 l 905 391 q 484 -14 905 -14 q 64 391 64 -14 l 64 1010 l 62 1015 z "},"Ý":{"ha":799,"x_min":-22,"x_max":819,"o":"m 368 1329 l 633 1329 l 492 1126 l 305 1126 l 368 1329 m 593 1015 l 595 1017 l 707 1015 l 819 1017 l 513 448 l 513 0 l 399 3 l 285 0 l 283 4 l 285 7 l 285 448 l -22 1017 l 91 1015 l 202 1017 l 205 1015 l 205 1010 l 399 646 l 593 1010 l 593 1015 z "},"Þ":{"ha":783,"x_min":72,"x_max":768,"o":"m 301 0 l 187 3 l 73 0 l 72 4 l 73 7 l 73 1010 l 72 1015 l 73 1017 l 187 1015 l 301 1017 l 301 814 l 357 814 q 768 509 768 814 q 357 203 768 203 l 301 203 l 301 0 m 366 380 q 540 509 540 380 q 349 637 540 637 l 301 637 l 301 380 l 366 380 z "},"à":{"ha":682,"x_min":11,"x_max":674,"o":"m 91 1017 l 357 1017 l 419 814 l 232 814 l 91 1017 m 38 593 q 326 719 123 719 q 613 438 613 719 l 613 195 q 621 157 613 163 q 674 151 631 151 l 674 0 q 490 9 533 0 q 420 66 434 22 q 237 -14 363 -14 q 11 214 11 -14 q 62 339 11 285 q 199 410 115 392 q 410 525 410 450 q 326 552 410 552 q 199 483 244 552 l 38 593 m 410 308 q 320 279 373 290 q 216 221 216 256 q 300 127 216 127 q 410 263 399 127 l 410 308 z "},"á":{"ha":682,"x_min":11,"x_max":674,"o":"m 294 1017 l 560 1017 l 419 814 l 232 814 l 294 1017 m 38 593 q 326 719 123 719 q 613 438 613 719 l 613 195 q 621 157 613 163 q 674 151 631 151 l 674 0 q 490 9 533 0 q 420 66 434 22 q 237 -14 363 -14 q 11 214 11 -14 q 62 339 11 285 q 199 410 115 392 q 410 525 410 450 q 326 552 410 552 q 199 483 244 552 l 38 593 m 410 308 q 320 279 373 290 q 216 221 216 256 q 300 127 216 127 q 410 263 399 127 l 410 308 z "},"â":{"ha":682,"x_min":11,"x_max":674,"o":"m 281 814 l 95 814 l 231 1017 l 420 1017 l 556 814 l 370 814 l 326 857 l 281 814 m 38 593 q 326 719 123 719 q 613 438 613 719 l 613 195 q 621 157 613 163 q 674 151 631 151 l 674 0 q 490 9 533 0 q 420 66 434 22 q 237 -14 363 -14 q 11 214 11 -14 q 62 339 11 285 q 199 410 115 392 q 410 525 410 450 q 326 552 410 552 q 199 483 244 552 l 38 593 m 410 308 q 320 279 373 290 q 216 221 216 256 q 300 127 216 127 q 410 263 399 127 l 410 308 z "},"ã":{"ha":838,"x_min":23,"x_max":774,"o":"m 140 814 q 184 971 140 911 q 304 1031 229 1031 q 414 996 368 1031 q 480 959 460 959 q 507 1017 507 959 l 658 1017 q 613 860 658 920 q 494 800 568 800 q 385 837 431 800 q 317 872 338 872 q 290 814 290 872 l 140 814 m 23 353 q 119 618 23 518 q 373 719 216 719 q 571 629 494 719 l 571 705 l 774 705 l 774 0 l 571 0 l 571 76 q 373 -14 494 -14 q 119 87 216 -14 q 23 353 23 187 m 571 353 q 536 496 571 442 q 441 551 499 551 q 298 496 353 551 q 244 353 244 442 q 298 209 244 263 q 441 155 353 155 q 536 209 499 155 q 571 353 571 263 z "},"ä":{"ha":682,"x_min":11,"x_max":674,"o":"m 391 1035 l 612 1035 l 612 814 l 391 814 l 391 1035 m 39 1035 l 262 1035 l 262 814 l 39 814 l 39 1035 m 38 593 q 326 719 123 719 q 613 438 613 719 l 613 195 q 621 157 613 163 q 674 151 631 151 l 674 0 q 490 9 533 0 q 420 66 434 22 q 237 -14 363 -14 q 11 214 11 -14 q 62 339 11 285 q 199 410 115 392 q 410 525 410 450 q 326 552 410 552 q 199 483 244 552 l 38 593 m 410 308 q 320 279 373 290 q 216 221 216 256 q 300 127 216 127 q 410 263 399 127 l 410 308 z "},"å":{"ha":682,"x_min":11,"x_max":674,"o":"m 326 907 q 345 929 345 907 q 326 951 345 951 q 307 929 307 951 q 326 907 307 907 m 205 929 q 326 1044 205 1044 q 446 929 446 1044 q 326 814 446 814 q 205 929 205 814 m 38 593 q 326 719 123 719 q 613 438 613 719 l 613 195 q 621 157 613 163 q 674 151 631 151 l 674 0 q 490 9 533 0 q 420 66 434 22 q 237 -14 363 -14 q 11 214 11 -14 q 62 339 11 285 q 199 410 115 392 q 410 525 410 450 q 326 552 410 552 q 199 483 244 552 l 38 593 m 410 308 q 320 279 373 290 q 216 221 216 256 q 300 127 216 127 q 410 263 399 127 l 410 308 z "},"ç":{"ha":677,"x_min":23,"x_max":669,"o":"m 669 102 q 381 -14 585 -14 l 362 -14 l 350 -52 q 366 -49 358 -49 q 467 -92 429 -49 q 505 -205 505 -134 q 461 -316 505 -274 q 349 -359 419 -359 q 214 -264 251 -359 l 294 -202 q 343 -263 317 -263 q 389 -205 389 -263 q 349 -146 389 -146 q 316 -170 323 -146 l 255 -133 l 293 -7 q 23 353 23 41 q 122 631 23 536 q 381 719 214 719 q 667 587 547 719 l 521 454 q 381 559 423 559 q 244 353 244 559 q 381 155 244 155 q 518 239 457 155 l 669 102 z "},"è":{"ha":688,"x_min":23,"x_max":708,"o":"m 132 1017 l 397 1017 l 458 814 l 273 814 l 132 1017 m 680 104 q 351 -14 606 -14 q 114 75 198 -14 q 23 353 23 170 q 118 631 23 536 q 366 719 206 719 q 708 339 708 719 l 244 339 q 351 155 248 155 q 517 228 473 155 l 680 104 m 481 480 q 366 559 448 559 q 263 480 294 559 l 481 480 z "},"é":{"ha":688,"x_min":23,"x_max":708,"o":"m 335 1017 l 601 1017 l 458 814 l 273 814 l 335 1017 m 680 104 q 351 -14 606 -14 q 114 75 198 -14 q 23 353 23 170 q 118 631 23 536 q 366 719 206 719 q 708 339 708 719 l 244 339 q 351 155 248 155 q 517 228 473 155 l 680 104 m 481 480 q 366 559 448 559 q 263 480 294 559 l 481 480 z "},"ê":{"ha":688,"x_min":23,"x_max":708,"o":"m 321 814 l 136 814 l 271 1017 l 461 1017 l 597 814 l 411 814 l 366 857 l 321 814 m 680 104 q 351 -14 606 -14 q 114 75 198 -14 q 23 353 23 170 q 118 631 23 536 q 366 719 206 719 q 708 339 708 719 l 244 339 q 351 155 248 155 q 517 228 473 155 l 680 104 m 481 480 q 366 559 448 559 q 263 480 294 559 l 481 480 z "},"ë":{"ha":688,"x_min":23,"x_max":708,"o":"m 373 1035 l 594 1035 l 594 814 l 373 814 l 373 1035 m 138 1035 l 359 1035 l 359 814 l 138 814 l 138 1035 m 680 104 q 351 -14 606 -14 q 114 75 198 -14 q 23 353 23 170 q 118 631 23 536 q 366 719 206 719 q 708 339 708 719 l 244 339 q 351 155 248 155 q 517 228 473 155 l 680 104 m 481 480 q 366 559 448 559 q 263 480 294 559 l 481 480 z "},"ì":{"ha":228,"x_min":-171,"x_max":167,"o":"m -171 1017 l 95 1017 l 157 814 l -30 814 l -171 1017 m 64 3 l -38 0 l -39 4 l -38 7 l -38 699 l -39 703 l -38 705 l 64 703 l 64 705 l 165 705 l 165 7 l 167 4 l 165 0 l 64 3 z "},"í":{"ha":228,"x_min":-39,"x_max":298,"o":"m 33 1017 l 298 1017 l 157 814 l -30 814 l 33 1017 m 64 3 l -38 0 l -39 4 l -38 7 l -38 699 l -39 703 l -38 705 l 64 703 l 64 705 l 165 705 l 165 7 l 167 4 l 165 0 l 64 3 z "},"î":{"ha":228,"x_min":-167,"x_max":294,"o":"m 19 814 l -167 814 l -31 1017 l 159 1017 l 294 814 l 109 814 l 64 857 l 19 814 m 64 3 l -38 0 l -39 4 l -38 7 l -38 699 l -39 703 l -38 705 l 64 703 l 64 705 l 165 705 l 165 7 l 167 4 l 165 0 l 64 3 z "},"ï":{"ha":228,"x_min":-222,"x_max":350,"o":"m 127 1035 l 350 1035 l 350 814 l 127 814 l 127 1035 m -222 1035 l -1 1035 l -1 814 l -222 814 l -222 1035 m 64 3 l -38 0 l -39 4 l -38 7 l -38 699 l -39 703 l -38 705 l 64 703 l 64 705 l 165 705 l 165 7 l 167 4 l 165 0 l 64 3 z "},"ñ":{"ha":731,"x_min":52,"x_max":675,"o":"m 104 814 q 149 971 104 911 q 269 1031 194 1031 q 377 996 331 1031 q 445 959 425 959 q 472 1017 472 959 l 623 1017 q 578 860 623 920 q 458 800 533 800 q 349 837 395 800 q 282 872 302 872 q 255 814 255 872 l 104 814 m 572 3 l 471 0 l 469 4 l 471 7 l 471 427 q 377 528 471 528 q 290 496 323 528 q 256 414 256 465 l 256 0 l 153 3 l 52 0 l 52 705 l 118 704 l 256 705 l 256 624 q 456 712 331 712 q 614 640 557 712 q 674 427 674 566 l 674 7 l 675 4 l 674 0 l 572 3 z "},"ò":{"ha":736,"x_min":23,"x_max":701,"o":"m 127 1017 l 393 1017 l 456 814 l 269 814 l 127 1017 m 362 137 q 480 353 480 137 q 362 568 480 568 q 244 353 244 568 q 362 137 244 137 m 23 353 q 117 631 23 536 q 362 719 203 719 q 620 618 533 719 q 701 353 701 524 q 608 75 701 170 q 362 -14 521 -14 q 106 87 193 -14 q 23 353 23 182 z "},"ó":{"ha":736,"x_min":23,"x_max":701,"o":"m 331 1017 l 597 1017 l 456 814 l 269 814 l 331 1017 m 362 137 q 480 353 480 137 q 362 568 480 568 q 244 353 244 568 q 362 137 244 137 m 23 353 q 117 631 23 536 q 362 719 203 719 q 620 618 533 719 q 701 353 701 524 q 608 75 701 170 q 362 -14 521 -14 q 106 87 193 -14 q 23 353 23 182 z "},"ô":{"ha":736,"x_min":23,"x_max":701,"o":"m 317 814 l 132 814 l 267 1017 l 457 1017 l 593 814 l 407 814 l 362 857 l 317 814 m 362 137 q 480 353 480 137 q 362 568 480 568 q 244 353 244 568 q 362 137 244 137 m 23 353 q 117 631 23 536 q 362 719 203 719 q 620 618 533 719 q 701 353 701 524 q 608 75 701 170 q 362 -14 521 -14 q 106 87 193 -14 q 23 353 23 182 z "},"õ":{"ha":736,"x_min":23,"x_max":701,"o":"m 103 814 q 148 971 103 911 q 267 1031 193 1031 q 377 996 331 1031 q 444 959 423 959 q 471 1017 471 959 l 621 1017 q 576 860 621 920 q 457 800 532 800 q 347 837 393 800 q 281 872 301 872 q 254 814 254 872 l 103 814 m 362 137 q 480 353 480 137 q 362 568 480 568 q 244 353 244 568 q 362 137 244 137 m 23 353 q 117 631 23 536 q 362 719 203 719 q 620 618 533 719 q 701 353 701 524 q 608 75 701 170 q 362 -14 521 -14 q 106 87 193 -14 q 23 353 23 182 z "},"ö":{"ha":736,"x_min":23,"x_max":701,"o":"m 369 1035 l 590 1035 l 590 814 l 369 814 l 369 1035 m 134 1035 l 355 1035 l 355 814 l 134 814 l 134 1035 m 362 137 q 480 353 480 137 q 362 568 480 568 q 244 353 244 568 q 362 137 244 137 m 23 353 q 117 631 23 536 q 362 719 203 719 q 620 618 533 719 q 701 353 701 524 q 608 75 701 170 q 362 -14 521 -14 q 106 87 193 -14 q 23 353 23 182 z "},"ø":{"ha":736,"x_min":23,"x_max":701,"o":"m 362 137 q 480 353 480 137 q 473 437 480 399 l 275 191 q 362 137 307 137 m 23 353 q 117 631 23 536 q 362 719 203 719 q 568 663 488 719 l 613 719 l 701 719 l 620 618 q 701 353 701 524 q 608 75 701 170 q 362 -14 521 -14 q 156 42 237 -14 l 111 -14 l 23 -14 l 104 88 q 23 353 23 182 m 449 514 q 362 568 418 568 q 244 353 244 568 q 251 269 244 307 l 449 514 z "},"ù":{"ha":707,"x_min":45,"x_max":646,"o":"m 110 1017 l 376 1017 l 438 814 l 252 814 l 110 1017 m 644 703 l 644 7 l 646 4 l 644 0 l 593 1 l 441 0 l 441 103 q 259 -14 376 -14 q 90 64 138 -14 q 45 292 45 133 l 45 705 l 146 703 l 250 703 l 250 292 q 323 171 250 171 q 408 218 376 171 q 441 343 441 266 l 441 699 l 439 703 l 441 705 l 543 703 l 644 703 z "},"ú":{"ha":707,"x_min":45,"x_max":646,"o":"m 313 1017 l 579 1017 l 438 814 l 252 814 l 313 1017 m 644 703 l 644 7 l 646 4 l 644 0 l 593 1 l 441 0 l 441 103 q 259 -14 376 -14 q 90 64 138 -14 q 45 292 45 133 l 45 705 l 146 703 l 250 703 l 250 292 q 323 171 250 171 q 408 218 376 171 q 441 343 441 266 l 441 699 l 439 703 l 441 705 l 543 703 l 644 703 z "},"û":{"ha":707,"x_min":45,"x_max":646,"o":"m 300 814 l 114 814 l 250 1017 l 439 1017 l 575 814 l 389 814 l 345 857 l 300 814 m 644 703 l 644 7 l 646 4 l 644 0 l 593 1 l 441 0 l 441 103 q 259 -14 376 -14 q 90 64 138 -14 q 45 292 45 133 l 45 705 l 146 703 l 250 703 l 250 292 q 323 171 250 171 q 408 218 376 171 q 441 343 441 266 l 441 699 l 439 703 l 441 705 l 543 703 l 644 703 z "},"ü":{"ha":707,"x_min":45,"x_max":646,"o":"m 351 1035 l 572 1035 l 572 814 l 351 814 l 351 1035 m 117 1035 l 338 1035 l 338 814 l 117 814 l 117 1035 m 644 703 l 644 7 l 646 4 l 644 0 l 593 1 l 441 0 l 441 103 q 259 -14 376 -14 q 90 64 138 -14 q 45 292 45 133 l 45 705 l 146 703 l 250 703 l 250 292 q 323 171 250 171 q 408 218 376 171 q 441 343 441 266 l 441 699 l 439 703 l 441 705 l 543 703 l 644 703 z "},"ý":{"ha":600,"x_min":-33,"x_max":618,"o":"m 262 1017 l 528 1017 l 387 814 l 201 814 l 262 1017 m 388 705 l 503 703 l 618 705 l 349 -153 q 273 -248 328 -224 q 83 -274 218 -274 l 15 -274 l 15 -96 l 83 -96 q 190 -76 183 -96 l 199 -41 l -33 705 l 83 703 l 198 705 l 281 282 l 388 705 z "},"þ":{"ha":751,"x_min":52,"x_max":715,"o":"m 373 155 q 461 209 427 155 q 494 353 494 263 q 461 496 494 442 q 373 551 427 551 q 256 353 256 551 q 373 155 256 155 m 52 1017 l 118 1016 l 256 1017 l 256 644 q 441 719 326 719 q 639 618 564 719 q 715 353 715 517 q 639 87 715 189 q 441 -14 564 -14 q 256 61 326 -14 l 256 -339 l 153 -336 l 52 -339 l 52 1017 z "},"ÿ":{"ha":600,"x_min":-33,"x_max":618,"o":"m 300 1035 l 521 1035 l 521 814 l 300 814 l 300 1035 m 65 1035 l 286 1035 l 286 814 l 65 814 l 65 1035 m 388 705 l 503 703 l 618 705 l 349 -153 q 273 -248 328 -224 q 83 -274 218 -274 l 15 -274 l 15 -96 l 83 -96 q 190 -76 183 -96 l 199 -41 l -33 705 l 83 703 l 198 705 l 281 282 l 388 705 z "},"Ā":{"ha":920,"x_min":-34,"x_max":940,"o":"m 273 1267 l 652 1267 l 652 1126 l 273 1126 l 273 1267 m 334 353 l 572 353 l 453 697 l 334 353 m 273 178 l 212 0 l 90 3 l -34 0 l -34 4 l -31 7 l 334 1017 l 449 1015 l 581 1015 l 940 0 l 817 3 l 694 0 l 633 178 l 273 178 z "},"ā":{"ha":682,"x_min":11,"x_max":674,"o":"m 136 955 l 515 955 l 515 814 l 136 814 l 136 955 m 38 593 q 326 719 123 719 q 613 438 613 719 l 613 195 q 621 157 613 163 q 674 151 631 151 l 674 0 q 490 9 533 0 q 420 66 434 22 q 237 -14 363 -14 q 11 214 11 -14 q 62 339 11 285 q 199 410 115 392 q 410 525 410 450 q 326 552 410 552 q 199 483 244 552 l 38 593 m 410 308 q 320 279 373 290 q 216 221 216 256 q 300 127 216 127 q 410 263 399 127 l 410 308 z "},"Ă":{"ha":920,"x_min":-34,"x_max":940,"o":"m 399 1324 q 463 1253 399 1253 q 526 1324 526 1253 l 677 1324 q 618 1171 677 1229 q 463 1112 559 1112 q 307 1171 366 1112 q 248 1324 248 1229 l 399 1324 m 334 353 l 572 353 l 453 697 l 334 353 m 273 178 l 212 0 l 90 3 l -34 0 l -34 4 l -31 7 l 334 1017 l 449 1015 l 581 1015 l 940 0 l 817 3 l 694 0 l 633 178 l 273 178 z "},"ă":{"ha":682,"x_min":11,"x_max":674,"o":"m 262 1012 q 326 941 262 941 q 389 1012 389 941 l 540 1012 q 481 859 540 917 q 326 800 422 800 q 170 859 229 800 q 111 1012 111 917 l 262 1012 m 38 593 q 326 719 123 719 q 613 438 613 719 l 613 195 q 621 157 613 163 q 674 151 631 151 l 674 0 q 490 9 533 0 q 420 66 434 22 q 237 -14 363 -14 q 11 214 11 -14 q 62 339 11 285 q 199 410 115 392 q 410 525 410 450 q 326 552 410 552 q 199 483 244 552 l 38 593 m 410 308 q 320 279 373 290 q 216 221 216 256 q 300 127 216 127 q 410 263 399 127 l 410 308 z "},"Ą":{"ha":920,"x_min":-34,"x_max":1082,"o":"m 334 353 l 572 353 l 453 697 l 334 353 m 273 178 l 212 0 l 90 3 l -34 0 l -34 4 l -31 7 l 334 1017 l 449 1015 l 581 1015 l 940 0 l 935 0 q 872 -111 872 -47 q 977 -172 872 -172 q 1063 -148 1043 -172 l 1082 -259 q 966 -296 1053 -296 q 815 -251 872 -296 q 758 -132 758 -206 q 833 3 758 -79 l 694 0 l 633 178 l 273 178 z "},"ą":{"ha":749,"x_min":23,"x_max":830,"o":"m 23 353 q 106 618 23 517 q 324 719 189 719 q 481 646 418 719 l 481 705 l 585 705 l 686 708 l 686 -3 l 682 -3 q 620 -107 620 -46 q 724 -172 620 -172 q 811 -148 791 -172 l 830 -259 q 713 -296 800 -296 q 563 -250 620 -296 q 506 -127 506 -203 q 595 0 506 -83 l 481 0 l 481 60 q 324 -14 418 -14 q 106 87 189 -14 q 23 353 23 189 m 481 353 q 457 496 481 442 q 392 551 433 551 q 285 496 326 551 q 244 353 244 442 q 285 209 244 263 q 392 155 326 155 q 457 209 433 155 q 481 353 481 263 z "},"Ć":{"ha":890,"x_min":24,"x_max":894,"o":"m 429 1329 l 694 1329 l 552 1126 l 366 1126 l 429 1329 m 894 136 q 521 -14 769 -14 q 161 142 302 -14 q 24 509 24 292 q 161 876 24 726 q 521 1031 302 1031 q 817 948 678 1031 q 882 902 865 918 q 894 890 887 895 l 773 709 q 521 845 633 845 q 338 745 410 845 q 269 509 269 648 q 338 273 269 369 q 521 172 410 172 q 773 315 654 172 l 894 136 z "},"ć":{"ha":677,"x_min":23,"x_max":669,"o":"m 350 1017 l 616 1017 l 475 814 l 288 814 l 350 1017 m 669 102 q 381 -14 585 -14 q 122 75 214 -14 q 23 353 23 170 q 122 631 23 536 q 381 719 214 719 q 667 587 547 719 l 521 454 q 381 559 423 559 q 244 353 244 559 q 381 155 244 155 q 518 239 457 155 l 669 102 z "},"Ĉ":{"ha":890,"x_min":24,"x_max":894,"o":"m 415 1126 l 229 1126 l 365 1329 l 555 1329 l 690 1126 l 503 1126 l 460 1169 l 415 1126 m 894 136 q 521 -14 769 -14 q 161 142 302 -14 q 24 509 24 292 q 161 876 24 726 q 521 1031 302 1031 q 817 948 678 1031 q 882 902 865 918 q 894 890 887 895 l 773 709 q 521 845 633 845 q 338 745 410 845 q 269 509 269 648 q 338 273 269 369 q 521 172 410 172 q 773 315 654 172 l 894 136 z "},"Ċ":{"ha":890,"x_min":24,"x_max":894,"o":"m 349 1347 l 570 1347 l 570 1126 l 349 1126 l 349 1347 m 894 136 q 521 -14 769 -14 q 161 142 302 -14 q 24 509 24 292 q 161 876 24 726 q 521 1031 302 1031 q 817 948 678 1031 q 882 902 865 918 q 894 890 887 895 l 773 709 q 521 845 633 845 q 338 745 410 845 q 269 509 269 648 q 338 273 269 369 q 521 172 410 172 q 773 315 654 172 l 894 136 z "},"ċ":{"ha":677,"x_min":23,"x_max":669,"o":"m 270 1035 l 492 1035 l 492 814 l 270 814 l 270 1035 m 669 102 q 381 -14 585 -14 q 122 75 214 -14 q 23 353 23 170 q 122 631 23 536 q 381 719 214 719 q 667 587 547 719 l 521 454 q 381 559 423 559 q 244 353 244 559 q 381 155 244 155 q 518 239 457 155 l 669 102 z "},"Č":{"ha":890,"x_min":24,"x_max":894,"o":"m 415 1329 l 229 1329 l 365 1126 l 555 1126 l 690 1329 l 503 1329 l 460 1286 l 415 1329 m 894 136 q 521 -14 769 -14 q 161 142 302 -14 q 24 509 24 292 q 161 876 24 726 q 521 1031 302 1031 q 817 948 678 1031 q 882 902 865 918 q 894 890 887 895 l 773 709 q 521 845 633 845 q 338 745 410 845 q 269 509 269 648 q 338 273 269 369 q 521 172 410 172 q 773 315 654 172 l 894 136 z "},"č":{"ha":677,"x_min":23,"x_max":669,"o":"m 336 1017 l 151 1017 l 286 814 l 476 814 l 612 1017 l 426 1017 l 381 974 l 336 1017 m 669 102 q 381 -14 585 -14 q 122 75 214 -14 q 23 353 23 170 q 122 631 23 536 q 381 719 214 719 q 667 587 547 719 l 521 454 q 381 559 423 559 q 244 353 244 559 q 381 155 244 155 q 518 239 457 155 l 669 102 z "},"Ď":{"ha":975,"x_min":72,"x_max":933,"o":"m 336 1329 l 151 1329 l 286 1126 l 476 1126 l 612 1329 l 426 1329 l 381 1286 l 336 1329 m 187 3 l 73 0 l 72 4 l 73 7 l 73 1010 l 72 1015 l 73 1017 l 187 1015 l 301 1015 l 404 1017 q 933 509 933 1017 q 445 0 933 0 l 301 3 l 187 3 m 301 179 l 430 176 q 689 509 689 176 q 414 841 689 841 l 301 838 l 301 179 z "},"ď":{"ha":770,"x_min":23,"x_max":997,"o":"m 997 1031 l 933 827 l 783 827 l 774 1031 l 997 1031 m 23 353 q 102 618 23 518 q 308 719 180 719 q 503 631 426 719 l 503 1010 l 502 1015 l 503 1017 l 555 1016 l 707 1017 l 707 7 l 708 4 l 707 0 l 656 1 l 503 0 l 503 75 q 308 -14 426 -14 q 102 87 180 -14 q 23 353 23 189 m 503 353 q 468 496 503 442 q 376 551 433 551 q 281 496 316 551 q 244 353 244 442 q 281 209 244 263 q 376 155 316 155 q 468 209 433 155 q 503 353 503 263 z "},"Đ":{"ha":975,"x_min":-35,"x_max":933,"o":"m -35 579 l 73 579 l 73 1010 l 72 1015 l 73 1017 l 187 1015 l 301 1015 l 404 1017 q 933 509 933 1017 q 445 0 933 0 l 301 3 l 187 3 l 73 0 l 72 4 l 73 7 l 73 438 l -35 438 l -35 579 m 301 179 l 430 176 q 689 509 689 176 q 414 841 689 841 l 301 838 l 301 579 l 381 579 l 381 438 l 301 438 l 301 179 z "},"đ":{"ha":770,"x_min":23,"x_max":886,"o":"m 308 939 l 503 939 l 503 1010 l 502 1015 l 503 1017 l 555 1016 l 707 1017 l 707 939 l 886 939 l 886 798 l 707 798 l 707 7 l 708 4 l 707 0 l 656 1 l 503 0 l 503 75 q 308 -14 426 -14 q 102 87 180 -14 q 23 353 23 189 q 102 618 23 518 q 308 719 180 719 q 503 631 426 719 l 503 798 l 308 798 l 308 939 m 503 353 q 468 496 503 442 q 376 551 433 551 q 281 496 316 551 q 244 353 244 442 q 281 209 244 263 q 376 155 316 155 q 468 209 433 155 q 503 353 503 263 z "},"Ē":{"ha":842,"x_min":72,"x_max":810,"o":"m 240 1267 l 620 1267 l 620 1126 l 240 1126 l 240 1267 m 807 0 l 187 3 l 73 0 l 72 4 l 73 7 l 73 1010 l 72 1015 l 73 1017 l 187 1015 l 787 1017 l 787 925 l 789 831 l 301 830 l 301 613 l 755 613 l 758 614 l 762 613 l 760 525 l 762 437 l 758 435 l 755 437 l 301 437 l 301 187 l 810 186 l 807 92 l 807 0 z "},"ē":{"ha":688,"x_min":23,"x_max":708,"o":"m 176 955 l 556 955 l 556 814 l 176 814 l 176 955 m 680 104 q 351 -14 606 -14 q 114 75 198 -14 q 23 353 23 170 q 118 631 23 536 q 366 719 206 719 q 708 339 708 719 l 244 339 q 351 155 248 155 q 517 228 473 155 l 680 104 m 481 480 q 366 559 448 559 q 263 480 294 559 l 481 480 z "},"Ĕ":{"ha":842,"x_min":72,"x_max":810,"o":"m 366 1324 q 430 1253 366 1253 q 494 1324 494 1253 l 644 1324 q 586 1171 644 1229 q 430 1112 526 1112 q 274 1171 334 1112 q 216 1324 216 1229 l 366 1324 m 807 0 l 187 3 l 73 0 l 72 4 l 73 7 l 73 1010 l 72 1015 l 73 1017 l 187 1015 l 787 1017 l 787 925 l 789 831 l 301 830 l 301 613 l 755 613 l 758 614 l 762 613 l 760 525 l 762 437 l 758 435 l 755 437 l 301 437 l 301 187 l 810 186 l 807 92 l 807 0 z "},"ĕ":{"ha":688,"x_min":23,"x_max":708,"o":"m 302 1012 q 366 941 302 941 q 429 1012 429 941 l 579 1012 q 521 859 579 917 q 366 800 463 800 q 210 859 270 800 q 152 1012 152 917 l 302 1012 m 680 104 q 351 -14 606 -14 q 114 75 198 -14 q 23 353 23 170 q 118 631 23 536 q 366 719 206 719 q 708 339 708 719 l 244 339 q 351 155 248 155 q 517 228 473 155 l 680 104 m 481 480 q 366 559 448 559 q 263 480 294 559 l 481 480 z "},"Ė":{"ha":842,"x_min":72,"x_max":810,"o":"m 319 1347 l 541 1347 l 541 1126 l 319 1126 l 319 1347 m 807 0 l 187 3 l 73 0 l 72 4 l 73 7 l 73 1010 l 72 1015 l 73 1017 l 187 1015 l 787 1017 l 787 925 l 789 831 l 301 830 l 301 613 l 755 613 l 758 614 l 762 613 l 760 525 l 762 437 l 758 435 l 755 437 l 301 437 l 301 187 l 810 186 l 807 92 l 807 0 z "},"ė":{"ha":688,"x_min":23,"x_max":708,"o":"m 255 1035 l 476 1035 l 476 814 l 255 814 l 255 1035 m 680 104 q 351 -14 606 -14 q 114 75 198 -14 q 23 353 23 170 q 118 631 23 536 q 366 719 206 719 q 708 339 708 719 l 244 339 q 351 155 248 155 q 517 228 473 155 l 680 104 m 481 480 q 366 559 448 559 q 263 480 294 559 l 481 480 z "},"Ę":{"ha":842,"x_min":72,"x_max":810,"o":"m 467 1 q 401 -106 401 -43 q 506 -172 401 -172 q 593 -148 575 -172 l 613 -259 q 495 -296 581 -296 q 346 -250 403 -296 q 289 -126 289 -202 q 378 3 289 -81 l 187 3 l 73 0 l 72 4 l 73 7 l 73 1010 l 72 1015 l 73 1017 l 187 1015 l 787 1017 l 787 925 l 789 831 l 301 830 l 301 613 l 755 613 l 758 614 l 762 613 l 760 525 l 762 437 l 758 435 l 755 437 l 301 437 l 301 187 l 810 186 l 807 92 l 807 0 l 467 1 z "},"ę":{"ha":688,"x_min":23,"x_max":708,"o":"m 477 -3 q 437 -45 458 -12 q 411 -109 411 -81 q 515 -172 411 -172 q 602 -148 582 -172 l 623 -259 q 505 -296 590 -296 q 354 -250 411 -296 q 297 -129 297 -203 q 374 -14 297 -88 l 351 -14 q 114 75 198 -14 q 23 353 23 170 q 118 631 23 536 q 366 719 206 719 q 708 339 708 719 l 244 339 q 351 155 248 155 q 517 228 473 155 l 680 104 q 477 -3 632 27 m 481 480 q 366 559 448 559 q 263 480 294 559 l 481 480 z "},"Ě":{"ha":842,"x_min":72,"x_max":810,"o":"m 385 1329 l 199 1329 l 335 1126 l 525 1126 l 661 1329 l 475 1329 l 430 1286 l 385 1329 m 807 0 l 187 3 l 73 0 l 72 4 l 73 7 l 73 1010 l 72 1015 l 73 1017 l 187 1015 l 787 1017 l 787 925 l 789 831 l 301 830 l 301 613 l 755 613 l 758 614 l 762 613 l 760 525 l 762 437 l 758 435 l 755 437 l 301 437 l 301 187 l 810 186 l 807 92 l 807 0 z "},"ě":{"ha":688,"x_min":23,"x_max":708,"o":"m 321 1017 l 136 1017 l 271 814 l 461 814 l 597 1017 l 411 1017 l 366 974 l 321 1017 m 680 104 q 351 -14 606 -14 q 114 75 198 -14 q 23 353 23 170 q 118 631 23 536 q 366 719 206 719 q 708 339 708 719 l 244 339 q 351 155 248 155 q 517 228 473 155 l 680 104 m 481 480 q 366 559 448 559 q 263 480 294 559 l 481 480 z "},"Ĝ":{"ha":981,"x_min":24,"x_max":952,"o":"m 524 1126 l 338 1126 l 473 1329 l 663 1329 l 799 1126 l 613 1126 l 568 1169 l 524 1126 m 423 598 l 952 598 l 952 117 q 568 -14 799 -14 q 174 130 323 -14 q 24 509 24 274 q 174 887 24 743 q 568 1031 323 1031 q 856 949 719 1031 q 922 901 906 920 l 935 890 l 814 709 q 568 845 671 845 q 351 753 433 845 q 269 509 269 661 q 351 264 269 357 q 568 172 433 172 q 735 227 667 172 l 735 414 l 423 414 l 423 598 z "},"Ğ":{"ha":981,"x_min":24,"x_max":952,"o":"m 505 1324 q 568 1253 505 1253 q 632 1324 632 1253 l 783 1324 q 724 1171 783 1229 q 568 1112 665 1112 q 412 1171 472 1112 q 354 1324 354 1229 l 505 1324 m 423 598 l 952 598 l 952 117 q 568 -14 799 -14 q 174 130 323 -14 q 24 509 24 274 q 174 887 24 743 q 568 1031 323 1031 q 856 949 719 1031 q 922 901 906 920 l 935 890 l 814 709 q 568 845 671 845 q 351 753 433 845 q 269 509 269 661 q 351 264 269 357 q 568 172 433 172 q 735 227 667 172 l 735 414 l 423 414 l 423 598 z "},"ğ":{"ha":757,"x_min":23,"x_max":694,"o":"m 294 1012 q 358 941 294 941 q 422 1012 422 941 l 572 1012 q 514 859 572 917 q 358 800 454 800 q 202 859 262 800 q 144 1012 144 917 l 294 1012 m 220 -27 q 269 -96 232 -68 q 350 -126 307 -126 q 490 0 490 -126 l 490 83 q 301 0 415 0 q 23 353 23 0 q 301 719 23 719 q 490 633 415 719 l 490 703 l 591 703 l 693 705 l 694 703 l 693 699 l 693 87 q 368 -294 693 -294 q 145 -243 241 -294 q 31 -123 52 -193 l 220 -27 m 369 551 q 244 353 244 551 q 369 168 244 168 q 456 218 423 168 q 490 353 490 270 q 456 496 490 442 q 369 551 423 551 z "},"Ġ":{"ha":981,"x_min":24,"x_max":952,"o":"m 457 1347 l 680 1347 l 680 1126 l 457 1126 l 457 1347 m 423 598 l 952 598 l 952 117 q 568 -14 799 -14 q 174 130 323 -14 q 24 509 24 274 q 174 887 24 743 q 568 1031 323 1031 q 856 949 719 1031 q 922 901 906 920 l 935 890 l 814 709 q 568 845 671 845 q 351 753 433 845 q 269 509 269 661 q 351 264 269 357 q 568 172 433 172 q 735 227 667 172 l 735 414 l 423 414 l 423 598 z "},"ġ":{"ha":757,"x_min":23,"x_max":694,"o":"m 248 1035 l 469 1035 l 469 814 l 248 814 l 248 1035 m 220 -27 q 269 -96 232 -68 q 350 -126 307 -126 q 490 0 490 -126 l 490 83 q 301 0 415 0 q 23 353 23 0 q 301 719 23 719 q 490 633 415 719 l 490 703 l 591 703 l 693 705 l 694 703 l 693 699 l 693 87 q 368 -294 693 -294 q 145 -243 241 -294 q 31 -123 52 -193 l 220 -27 m 369 551 q 244 353 244 551 q 369 168 244 168 q 456 218 423 168 q 490 353 490 270 q 456 496 490 442 q 369 551 423 551 z "},"Ĥ":{"ha":1046,"x_min":72,"x_max":963,"o":"m 473 1126 l 288 1126 l 423 1329 l 613 1329 l 749 1126 l 563 1126 l 518 1169 l 473 1126 m 849 3 l 735 0 l 734 4 l 735 7 l 735 444 l 301 444 l 301 0 l 187 3 l 73 0 l 72 4 l 73 7 l 73 1010 l 72 1015 l 73 1017 l 187 1015 l 301 1017 l 301 628 l 735 628 l 735 1010 l 734 1015 l 735 1017 l 849 1015 l 962 1017 l 963 1015 l 962 1010 l 962 7 l 963 4 l 962 0 l 849 3 z "},"Ĩ":{"ha":400,"x_min":-57,"x_max":461,"o":"m -57 1126 q -11 1283 -57 1223 q 107 1343 34 1343 q 217 1308 171 1343 q 283 1271 263 1271 q 311 1329 311 1271 l 461 1329 q 416 1172 461 1232 q 297 1112 372 1112 q 189 1149 235 1112 q 122 1184 142 1184 q 94 1126 94 1184 l -57 1126 m 202 3 l 90 0 l 88 4 l 90 7 l 90 1010 l 88 1015 l 90 1017 l 202 1015 l 316 1017 l 317 1015 l 316 1010 l 316 7 l 317 4 l 316 0 l 202 3 z "},"ĩ":{"ha":228,"x_min":-195,"x_max":323,"o":"m -195 814 q -151 971 -195 911 q -31 1031 -106 1031 q 79 996 33 1031 q 145 959 125 959 q 172 1017 172 959 l 323 1017 q 278 860 323 920 q 159 800 233 800 q 49 837 95 800 q -18 872 3 872 q -45 814 -45 872 l -195 814 m -39 703 l -38 705 l 64 703 l 64 705 l 165 705 l 165 3 l -38 3 l -38 699 l -39 703 z "},"Ī":{"ha":400,"x_min":12,"x_max":392,"o":"m 12 1267 l 392 1267 l 392 1126 l 12 1126 l 12 1267 m 202 3 l 90 0 l 88 4 l 90 7 l 90 1010 l 88 1015 l 90 1017 l 202 1015 l 316 1017 l 317 1015 l 316 1010 l 316 7 l 317 4 l 316 0 l 202 3 z "},"ī":{"ha":228,"x_min":-126,"x_max":254,"o":"m -126 955 l 254 955 l 254 814 l -126 814 l -126 955 m 64 3 l -38 0 l -39 4 l -38 7 l -38 699 l -39 703 l -38 705 l 64 703 l 64 705 l 165 705 l 165 7 l 167 4 l 165 0 l 64 3 z "},"Ĭ":{"ha":400,"x_min":-11,"x_max":416,"o":"m 140 1324 q 202 1253 140 1253 q 266 1324 266 1253 l 416 1324 q 358 1171 416 1229 q 202 1112 298 1112 q 47 1171 106 1112 q -11 1324 -11 1229 l 140 1324 m 202 3 l 90 0 l 88 4 l 90 7 l 90 1010 l 88 1015 l 90 1017 l 202 1015 l 316 1017 l 317 1015 l 316 1010 l 316 7 l 317 4 l 316 0 l 202 3 z "},"ĭ":{"ha":228,"x_min":-151,"x_max":278,"o":"m 0 1012 q 64 941 0 941 q 127 1012 127 941 l 278 1012 q 220 859 278 917 q 64 800 160 800 q -92 859 -33 800 q -151 1012 -151 917 l 0 1012 m 64 3 l -38 0 l -39 4 l -38 7 l -38 699 l -39 703 l -38 705 l 64 703 l 64 705 l 165 705 l 165 7 l 167 4 l 165 0 l 64 3 z "},"İ":{"ha":400,"x_min":88,"x_max":317,"o":"m 92 1347 l 313 1347 l 313 1126 l 92 1126 l 92 1347 m 202 3 l 90 0 l 88 4 l 90 7 l 90 1010 l 88 1015 l 90 1017 l 202 1015 l 316 1017 l 317 1015 l 316 1010 l 316 7 l 317 4 l 316 0 l 202 3 z "},"ı":{"ha":359,"x_min":94,"x_max":297,"o":"m 94 705 l 297 705 l 297 0 l 94 0 l 94 705 z "},"Ĵ":{"ha":757,"x_min":22,"x_max":791,"o":"m 515 1126 l 330 1126 l 465 1329 l 655 1329 l 791 1126 l 604 1126 l 560 1169 l 515 1126 m 248 416 l 248 354 q 347 197 248 197 q 446 298 446 197 l 446 1010 l 445 1015 l 446 1017 l 560 1015 l 673 1017 l 674 1015 l 673 1010 l 673 298 q 590 72 673 155 q 347 -14 505 -14 q 100 60 179 -14 q 22 289 22 132 l 22 377 l 248 416 z "},"Ĺ":{"ha":764,"x_min":88,"x_max":757,"o":"m 171 1329 l 437 1329 l 296 1126 l 110 1126 l 171 1329 m 754 0 l 202 3 l 90 0 l 88 4 l 90 7 l 90 1010 l 88 1015 l 90 1017 l 202 1015 l 316 1017 l 317 1015 l 316 1010 l 316 187 l 757 186 l 754 92 l 754 0 z "},"ĺ":{"ha":305,"x_min":-3,"x_max":324,"o":"m 58 1275 l 324 1275 l 183 1072 l -3 1072 l 58 1275 m 141 3 l 39 0 l 38 4 l 39 7 l 39 1010 l 38 1015 l 39 1017 l 141 1015 l 141 1017 l 243 1017 l 243 7 l 244 4 l 243 0 l 141 3 z "},"Ľ":{"ha":764,"x_min":88,"x_max":757,"o":"m 646 1031 l 583 827 l 433 827 l 425 1031 l 646 1031 m 754 0 l 202 3 l 90 0 l 88 4 l 90 7 l 90 1010 l 88 1015 l 90 1017 l 202 1015 l 316 1017 l 317 1015 l 316 1010 l 316 187 l 757 186 l 754 92 l 754 0 z "},"ľ":{"ha":305,"x_min":38,"x_max":532,"o":"m 532 1031 l 469 827 l 319 827 l 311 1031 l 532 1031 m 141 3 l 39 0 l 38 4 l 39 7 l 39 1010 l 38 1015 l 39 1017 l 141 1015 l 141 1017 l 243 1017 l 243 7 l 244 4 l 243 0 l 141 3 z "},"Ł":{"ha":764,"x_min":-19,"x_max":757,"o":"m -19 515 l 90 543 l 90 1010 l 88 1015 l 90 1017 l 202 1015 l 316 1017 l 317 1015 l 316 1010 l 316 597 l 536 651 l 536 500 l 316 446 l 316 187 l 757 186 l 754 92 l 754 0 l 202 3 l 90 0 l 88 4 l 90 7 l 90 392 l -19 365 l -19 515 z "},"ł":{"ha":305,"x_min":-69,"x_max":351,"o":"m -69 515 l 39 551 l 39 1010 l 38 1015 l 39 1017 l 141 1015 l 141 1017 l 243 1017 l 243 616 l 351 651 l 351 500 l 243 465 l 243 7 l 244 4 l 243 0 l 141 3 l 39 0 l 38 4 l 39 7 l 39 400 l -69 365 l -69 515 z "},"Ń":{"ha":1006,"x_min":72,"x_max":925,"o":"m 332 1329 l 597 1329 l 456 1126 l 270 1126 l 332 1329 m 696 1017 l 810 1015 l 924 1017 l 925 1015 l 924 1010 l 924 0 l 605 0 l 301 579 l 301 0 l 187 3 l 73 0 l 72 4 l 73 7 l 73 1010 l 72 1015 l 73 1017 l 187 1015 l 326 1015 l 696 309 l 696 1017 z "},"ń":{"ha":731,"x_min":52,"x_max":675,"o":"m 332 1017 l 598 1017 l 456 814 l 270 814 l 332 1017 m 572 3 l 471 0 l 469 4 l 471 7 l 471 427 q 377 528 471 528 q 290 496 323 528 q 256 414 256 465 l 256 0 l 153 3 l 52 0 l 52 705 l 118 704 l 256 705 l 256 624 q 456 712 331 712 q 614 640 557 712 q 674 427 674 566 l 674 7 l 675 4 l 674 0 l 572 3 z "},"Ň":{"ha":1006,"x_min":72,"x_max":925,"o":"m 454 1329 l 269 1329 l 404 1126 l 594 1126 l 730 1329 l 543 1329 l 499 1286 l 454 1329 m 696 1017 l 810 1015 l 924 1017 l 925 1015 l 924 1010 l 924 0 l 605 0 l 301 579 l 301 0 l 187 3 l 73 0 l 72 4 l 73 7 l 73 1010 l 72 1015 l 73 1017 l 187 1015 l 326 1015 l 696 309 l 696 1017 z "},"ň":{"ha":731,"x_min":52,"x_max":675,"o":"m 319 1017 l 133 1017 l 269 814 l 458 814 l 594 1017 l 408 1017 l 363 974 l 319 1017 m 572 3 l 471 0 l 469 4 l 471 7 l 471 427 q 377 528 471 528 q 290 496 323 528 q 256 414 256 465 l 256 0 l 153 3 l 52 0 l 52 705 l 118 704 l 256 705 l 256 624 q 456 712 331 712 q 614 640 557 712 q 674 427 674 566 l 674 7 l 675 4 l 674 0 l 572 3 z "},"Ō":{"ha":1040,"x_min":31,"x_max":998,"o":"m 324 1267 l 704 1267 l 704 1126 l 324 1126 l 324 1267 m 514 172 q 688 264 623 172 q 754 509 754 357 q 685 749 754 652 q 514 845 617 845 q 345 749 412 845 q 275 509 275 652 q 342 264 275 357 q 514 172 407 172 m 31 509 q 170 882 31 731 q 514 1031 308 1031 q 860 882 722 1031 q 998 509 998 731 q 865 130 998 274 q 514 -14 732 -14 q 164 130 297 -14 q 31 509 31 274 z "},"ō":{"ha":736,"x_min":23,"x_max":701,"o":"m 172 955 l 552 955 l 552 814 l 172 814 l 172 955 m 362 137 q 480 353 480 137 q 362 568 480 568 q 244 353 244 568 q 362 137 244 137 m 23 353 q 117 631 23 536 q 362 719 203 719 q 620 618 533 719 q 701 353 701 524 q 608 75 701 170 q 362 -14 521 -14 q 106 87 193 -14 q 23 353 23 182 z "},"Ŏ":{"ha":1040,"x_min":31,"x_max":998,"o":"m 452 1324 q 514 1253 452 1253 q 578 1324 578 1253 l 728 1324 q 670 1171 728 1229 q 514 1112 610 1112 q 359 1171 418 1112 q 301 1324 301 1229 l 452 1324 m 514 172 q 688 264 623 172 q 754 509 754 357 q 685 749 754 652 q 514 845 617 845 q 345 749 412 845 q 275 509 275 652 q 342 264 275 357 q 514 172 407 172 m 31 509 q 170 882 31 731 q 514 1031 308 1031 q 860 882 722 1031 q 998 509 998 731 q 865 130 998 274 q 514 -14 732 -14 q 164 130 297 -14 q 31 509 31 274 z "},"ŏ":{"ha":736,"x_min":23,"x_max":701,"o":"m 298 1012 q 362 941 298 941 q 426 1012 426 941 l 576 1012 q 518 859 576 917 q 362 800 458 800 q 206 859 266 800 q 148 1012 148 917 l 298 1012 m 362 137 q 480 353 480 137 q 362 568 480 568 q 244 353 244 568 q 362 137 244 137 m 23 353 q 117 631 23 536 q 362 719 203 719 q 620 618 533 719 q 701 353 701 524 q 608 75 701 170 q 362 -14 521 -14 q 106 87 193 -14 q 23 353 23 182 z "},"Ŕ":{"ha":783,"x_min":72,"x_max":821,"o":"m 389 1329 l 655 1329 l 514 1126 l 327 1126 l 389 1329 m 559 3 l 301 423 l 301 0 l 187 3 l 73 0 l 72 4 l 73 7 l 73 1010 l 72 1015 l 73 1017 l 168 1015 l 357 1017 q 768 712 768 1017 q 549 446 768 505 l 817 7 l 821 4 l 821 0 l 689 3 l 559 3 m 365 602 q 540 712 540 602 q 349 841 540 841 l 301 841 l 301 602 l 365 602 z "},"ŕ":{"ha":475,"x_min":52,"x_max":500,"o":"m 235 1017 l 500 1017 l 359 814 l 172 814 l 235 1017 m 446 484 q 256 292 256 484 l 256 0 l 153 3 l 52 0 l 52 705 l 118 704 l 256 705 l 256 598 q 467 705 327 705 l 480 705 l 480 484 l 446 484 z "},"Ř":{"ha":783,"x_min":72,"x_max":821,"o":"m 376 1329 l 190 1329 l 326 1126 l 515 1126 l 651 1329 l 465 1329 l 420 1286 l 376 1329 m 559 3 l 301 423 l 301 0 l 187 3 l 73 0 l 72 4 l 73 7 l 73 1010 l 72 1015 l 73 1017 l 168 1015 l 357 1017 q 768 712 768 1017 q 549 446 768 505 l 817 7 l 821 4 l 821 0 l 689 3 l 559 3 m 365 602 q 540 712 540 602 q 349 841 540 841 l 301 841 l 301 602 l 365 602 z "},"ř":{"ha":475,"x_min":35,"x_max":496,"o":"m 221 1017 l 35 1017 l 171 814 l 361 814 l 496 1017 l 311 1017 l 266 974 l 221 1017 m 446 484 q 256 292 256 484 l 256 0 l 153 3 l 52 0 l 52 705 l 118 704 l 256 705 l 256 598 q 467 705 327 705 l 480 705 l 480 484 l 446 484 z "},"Ś":{"ha":840,"x_min":5,"x_max":823,"o":"m 374 1329 l 640 1329 l 499 1126 l 313 1126 l 374 1329 m 34 133 q 19 148 26 140 l 167 331 q 297 232 216 275 q 453 184 384 184 q 597 280 597 184 q 382 408 597 376 q 5 738 5 472 q 106 951 5 869 q 368 1031 205 1031 q 723 952 551 1031 q 774 924 757 936 q 793 911 785 918 l 662 738 q 368 829 544 829 q 240 750 240 829 q 445 639 240 671 q 823 285 823 575 q 730 69 823 148 q 453 -14 632 -14 q 81 95 247 -14 q 34 133 49 117 z "},"ś":{"ha":625,"x_min":1,"x_max":616,"o":"m 281 1017 l 547 1017 l 404 814 l 218 814 l 281 1017 m 60 60 q 1 106 18 83 l 159 225 q 321 153 214 153 q 414 176 414 153 q 293 262 414 239 q 102 354 168 286 q 37 511 37 419 q 113 656 37 602 q 312 712 187 712 q 522 647 415 712 q 572 610 557 625 q 586 595 581 602 l 448 479 q 312 562 377 562 q 231 528 231 562 q 340 444 231 467 q 547 350 473 418 q 616 194 616 285 q 534 49 616 103 q 321 -7 454 -7 q 64 57 180 -7 l 60 60 z "},"Ŝ":{"ha":840,"x_min":5,"x_max":823,"o":"m 361 1126 l 175 1126 l 311 1329 l 500 1329 l 636 1126 l 450 1126 l 406 1169 l 361 1126 m 34 133 q 19 148 26 140 l 167 331 q 297 232 216 275 q 453 184 384 184 q 597 280 597 184 q 382 408 597 376 q 5 738 5 472 q 106 951 5 869 q 368 1031 205 1031 q 723 952 551 1031 q 774 924 757 936 q 793 911 785 918 l 662 738 q 368 829 544 829 q 240 750 240 829 q 445 639 240 671 q 823 285 823 575 q 730 69 823 148 q 453 -14 632 -14 q 81 95 247 -14 q 34 133 49 117 z "},"Ş":{"ha":840,"x_min":5,"x_max":823,"o":"m 450 -56 q 473 -49 461 -49 q 575 -92 536 -49 q 613 -205 613 -134 q 570 -316 613 -274 q 456 -359 526 -359 q 321 -264 358 -359 l 401 -202 q 450 -263 425 -263 q 498 -205 498 -263 q 456 -146 498 -146 q 423 -168 430 -146 l 423 -170 l 362 -133 l 391 -11 q 81 95 214 8 q 34 133 49 117 q 19 148 26 140 l 167 331 q 297 232 216 275 q 453 184 384 184 q 597 280 597 184 q 382 408 597 376 q 5 738 5 472 q 106 951 5 869 q 368 1031 205 1031 q 723 952 551 1031 q 774 924 757 936 q 793 911 785 918 l 662 738 q 368 829 544 829 q 240 750 240 829 q 445 639 240 671 q 823 285 823 575 q 731 71 823 149 q 460 -14 636 -12 l 450 -56 z "},"ş":{"ha":625,"x_min":1,"x_max":616,"o":"m 320 -54 q 340 -49 330 -49 q 442 -92 403 -49 q 480 -205 480 -134 q 437 -316 480 -274 q 323 -359 393 -359 q 190 -264 224 -359 l 269 -202 q 319 -263 292 -263 q 365 -205 365 -263 q 323 -146 365 -146 q 290 -170 297 -146 l 229 -133 l 262 -3 q 64 57 151 9 l 60 60 q 1 106 18 83 l 159 225 q 321 153 214 153 q 414 176 414 153 q 293 262 414 239 q 102 354 168 286 q 37 511 37 419 q 113 656 37 602 q 312 712 187 712 q 522 647 415 712 q 572 610 557 625 q 586 595 581 602 l 448 479 q 312 562 377 562 q 231 528 231 562 q 340 444 231 467 q 547 350 473 418 q 616 194 616 285 q 538 50 616 106 q 332 -7 460 -4 l 320 -54 z "},"Š":{"ha":840,"x_min":5,"x_max":823,"o":"m 361 1329 l 175 1329 l 311 1126 l 500 1126 l 636 1329 l 450 1329 l 406 1286 l 361 1329 m 34 133 q 19 148 26 140 l 167 331 q 297 232 216 275 q 453 184 384 184 q 597 280 597 184 q 382 408 597 376 q 5 738 5 472 q 106 951 5 869 q 368 1031 205 1031 q 723 952 551 1031 q 774 924 757 936 q 793 911 785 918 l 662 738 q 368 829 544 829 q 240 750 240 829 q 445 639 240 671 q 823 285 823 575 q 730 69 823 148 q 453 -14 632 -14 q 81 95 247 -14 q 34 133 49 117 z "},"š":{"ha":625,"x_min":1,"x_max":616,"o":"m 267 1017 l 81 1017 l 217 814 l 407 814 l 543 1017 l 357 1017 l 312 974 l 267 1017 m 60 60 q 1 106 18 83 l 159 225 q 321 153 214 153 q 414 176 414 153 q 293 262 414 239 q 102 354 168 286 q 37 511 37 419 q 113 656 37 602 q 312 712 187 712 q 522 647 415 712 q 572 610 557 625 q 586 595 581 602 l 448 479 q 312 562 377 562 q 231 528 231 562 q 340 444 231 467 q 547 350 473 418 q 616 194 616 285 q 534 49 616 103 q 321 -7 454 -7 q 64 57 180 -7 l 60 60 z "},"Ť":{"ha":742,"x_min":-18,"x_max":762,"o":"m 328 1329 l 141 1329 l 277 1126 l 467 1126 l 602 1329 l 416 1329 l 372 1286 l 328 1329 m 372 3 l 259 0 l 258 4 l 259 7 l 259 831 l -18 831 q -15 925 -18 868 l -15 1017 l 760 1017 l 760 925 l 762 831 l 486 831 l 486 7 l 487 4 l 486 0 l 372 3 z "},"ť":{"ha":404,"x_min":-18,"x_max":560,"o":"m 560 1031 l 496 827 l 346 827 l 338 1031 l 560 1031 m 396 545 l 270 545 l 270 203 q 277 175 270 180 q 320 167 286 167 l 396 167 l 396 0 l 231 0 q 90 45 119 0 q 66 203 66 79 l 66 545 l -18 545 l -18 705 l 66 705 l 66 888 l 270 1059 l 270 705 l 396 705 l 396 545 z "},"Ũ":{"ha":982,"x_min":62,"x_max":906,"o":"m 225 1112 q 270 1270 225 1210 q 389 1329 315 1329 q 499 1294 453 1329 q 566 1257 545 1257 q 593 1316 593 1257 l 743 1316 q 699 1158 743 1218 q 579 1099 654 1099 q 471 1135 517 1099 q 403 1171 423 1171 q 376 1112 376 1171 l 225 1112 m 62 1015 l 64 1017 l 178 1015 l 292 1017 l 290 430 q 484 197 290 197 q 678 430 678 197 l 678 1010 l 677 1015 l 678 1017 l 792 1015 l 905 1017 l 906 1015 l 905 1010 l 905 391 q 484 -14 905 -14 q 64 391 64 -14 l 64 1010 l 62 1015 z "},"ũ":{"ha":707,"x_min":45,"x_max":646,"o":"m 85 814 q 130 971 85 911 q 250 1031 175 1031 q 359 996 313 1031 q 426 959 406 959 q 453 1017 453 959 l 604 1017 q 559 860 604 920 q 439 800 514 800 q 331 837 377 800 q 263 872 283 872 q 236 814 236 872 l 85 814 m 644 703 l 644 7 l 646 4 l 644 0 l 593 1 l 441 0 l 441 103 q 259 -14 376 -14 q 90 64 138 -14 q 45 292 45 133 l 45 705 l 146 703 l 250 703 l 250 292 q 323 171 250 171 q 408 218 376 171 q 441 343 441 266 l 441 699 l 439 703 l 441 705 l 543 703 l 644 703 z "},"Ū":{"ha":982,"x_min":62,"x_max":906,"o":"m 294 1253 l 674 1253 l 674 1112 l 294 1112 l 294 1253 m 62 1015 l 64 1017 l 178 1015 l 292 1017 l 290 430 q 484 197 290 197 q 678 430 678 197 l 678 1010 l 677 1015 l 678 1017 l 792 1015 l 905 1017 l 906 1015 l 905 1010 l 905 391 q 484 -14 905 -14 q 64 391 64 -14 l 64 1010 l 62 1015 z "},"ū":{"ha":707,"x_min":45,"x_max":646,"o":"m 155 955 l 534 955 l 534 814 l 155 814 l 155 955 m 644 703 l 644 7 l 646 4 l 644 0 l 593 1 l 441 0 l 441 103 q 259 -14 376 -14 q 90 64 138 -14 q 45 292 45 133 l 45 705 l 146 703 l 250 703 l 250 292 q 323 171 250 171 q 408 218 376 171 q 441 343 441 266 l 441 699 l 439 703 l 441 705 l 543 703 l 644 703 z "},"Ŭ":{"ha":982,"x_min":62,"x_max":906,"o":"m 422 1310 q 484 1240 422 1240 q 548 1310 548 1240 l 699 1310 q 640 1157 699 1215 q 484 1099 581 1099 q 328 1157 388 1099 q 270 1310 270 1215 l 422 1310 m 62 1015 l 64 1017 l 178 1015 l 292 1017 l 290 430 q 484 197 290 197 q 678 430 678 197 l 678 1010 l 677 1015 l 678 1017 l 792 1015 l 905 1017 l 906 1015 l 905 1010 l 905 391 q 484 -14 905 -14 q 64 391 64 -14 l 64 1010 l 62 1015 z "},"ŭ":{"ha":707,"x_min":45,"x_max":646,"o":"m 281 1012 q 345 941 281 941 q 408 1012 408 941 l 559 1012 q 500 859 559 917 q 345 800 441 800 q 189 859 248 800 q 130 1012 130 917 l 281 1012 m 644 703 l 644 7 l 646 4 l 644 0 l 593 1 l 441 0 l 441 103 q 259 -14 376 -14 q 90 64 138 -14 q 45 292 45 133 l 45 705 l 146 703 l 250 703 l 250 292 q 323 171 250 171 q 408 218 376 171 q 441 343 441 266 l 441 699 l 439 703 l 441 705 l 543 703 l 644 703 z "},"Ů":{"ha":982,"x_min":62,"x_max":906,"o":"m 484 1206 q 505 1227 505 1206 q 484 1249 505 1249 q 465 1227 465 1249 q 484 1206 465 1206 m 365 1227 q 484 1343 365 1343 q 605 1227 605 1343 q 484 1112 605 1112 q 365 1227 365 1112 m 62 1015 l 64 1017 l 178 1015 l 292 1017 l 290 430 q 484 197 290 197 q 678 430 678 197 l 678 1010 l 677 1015 l 678 1017 l 792 1015 l 905 1017 l 906 1015 l 905 1010 l 905 391 q 484 -14 905 -14 q 64 391 64 -14 l 64 1010 l 62 1015 z "},"ů":{"ha":707,"x_min":45,"x_max":646,"o":"m 345 907 q 363 929 363 907 q 345 951 363 951 q 326 929 326 951 q 345 907 326 907 m 224 929 q 345 1044 224 1044 q 465 929 465 1044 q 345 814 465 814 q 224 929 224 814 m 644 703 l 644 7 l 646 4 l 644 0 l 593 1 l 441 0 l 441 103 q 259 -14 376 -14 q 90 64 138 -14 q 45 292 45 133 l 45 705 l 146 703 l 250 703 l 250 292 q 323 171 250 171 q 408 218 376 171 q 441 343 441 266 l 441 699 l 439 703 l 441 705 l 543 703 l 644 703 z "},"Ŵ":{"ha":1109,"x_min":-31,"x_max":1128,"o":"m 505 1126 l 319 1126 l 454 1329 l 644 1329 l 780 1126 l 594 1126 l 549 1169 l 505 1126 m 884 1017 l 1006 1015 l 1128 1017 l 910 0 l 692 0 l 548 582 l 399 0 l 179 0 l -31 1015 l -30 1017 l 92 1015 l 214 1017 l 312 480 l 439 1017 l 659 1017 l 792 480 l 884 1017 z "},"Ŷ":{"ha":799,"x_min":-22,"x_max":819,"o":"m 354 1126 l 168 1126 l 304 1329 l 494 1329 l 629 1126 l 444 1126 l 399 1169 l 354 1126 m 593 1015 l 595 1017 l 707 1015 l 819 1017 l 513 448 l 513 0 l 399 3 l 285 0 l 283 4 l 285 7 l 285 448 l -22 1017 l 91 1015 l 202 1017 l 205 1015 l 205 1010 l 399 646 l 593 1010 l 593 1015 z "},"Ÿ":{"ha":799,"x_min":-22,"x_max":819,"o":"m 406 1347 l 627 1347 l 627 1126 l 406 1126 l 406 1347 m 171 1347 l 392 1347 l 392 1126 l 171 1126 l 171 1347 m 593 1015 l 595 1017 l 707 1015 l 819 1017 l 513 448 l 513 0 l 399 3 l 285 0 l 283 4 l 285 7 l 285 448 l -22 1017 l 91 1015 l 202 1017 l 205 1015 l 205 1010 l 399 646 l 593 1010 l 593 1015 z "},"Ź":{"ha":823,"x_min":30,"x_max":796,"o":"m 393 1329 l 659 1329 l 517 1126 l 331 1126 l 393 1329 m 796 186 l 793 92 l 793 0 l 30 0 l 30 186 l 509 831 l 50 831 q 53 925 50 868 l 53 1017 l 796 1017 l 796 831 l 319 186 l 796 186 z "},"ź":{"ha":559,"x_min":9,"x_max":566,"o":"m 266 1017 l 532 1017 l 391 814 l 205 814 l 266 1017 m 544 705 l 544 582 l 258 160 l 566 160 l 563 80 l 563 0 l 9 0 l 9 123 l 286 545 l 30 545 q 33 625 30 579 l 33 705 l 544 705 z "},"Ż":{"ha":823,"x_min":30,"x_max":796,"o":"m 313 1347 l 534 1347 l 534 1126 l 313 1126 l 313 1347 m 796 186 l 793 92 l 793 0 l 30 0 l 30 186 l 509 831 l 50 831 q 53 925 50 868 l 53 1017 l 796 1017 l 796 831 l 319 186 l 796 186 z "},"ż":{"ha":559,"x_min":9,"x_max":566,"o":"m 187 1035 l 408 1035 l 408 814 l 187 814 l 187 1035 m 544 705 l 544 582 l 258 160 l 566 160 l 563 80 l 563 0 l 9 0 l 9 123 l 286 545 l 30 545 q 33 625 30 579 l 33 705 l 544 705 z "},"Ž":{"ha":823,"x_min":30,"x_max":796,"o":"m 380 1329 l 194 1329 l 330 1126 l 519 1126 l 655 1329 l 469 1329 l 425 1286 l 380 1329 m 796 186 l 793 92 l 793 0 l 30 0 l 30 186 l 509 831 l 50 831 q 53 925 50 868 l 53 1017 l 796 1017 l 796 831 l 319 186 l 796 186 z "},"ž":{"ha":559,"x_min":9,"x_max":566,"o":"m 254 1017 l 66 1017 l 202 814 l 392 814 l 528 1017 l 342 1017 l 297 974 l 254 1017 m 544 705 l 544 582 l 258 160 l 566 160 l 563 80 l 563 0 l 9 0 l 9 123 l 286 545 l 30 545 q 33 625 30 579 l 33 705 l 544 705 z "},"ǫ":{"ha":959,"x_min":37,"x_max":917,"o":"m 37 404 q 163 704 37 583 q 477 823 289 823 q 791 704 666 823 q 917 404 917 583 q 772 80 917 197 l 836 -39 l 690 -122 l 623 5 q 477 -14 555 -14 q 157 102 279 -14 q 37 404 37 216 m 479 277 l 624 359 l 670 273 q 697 404 697 330 q 635 585 697 511 q 477 656 571 656 q 320 585 382 656 q 256 404 256 513 q 317 222 256 292 q 477 153 378 153 q 540 161 510 153 l 479 277 z "},"Ȧ":{"ha":920,"x_min":-34,"x_max":940,"o":"m 351 1347 l 572 1347 l 572 1126 l 351 1126 l 351 1347 m 334 353 l 572 353 l 453 697 l 334 353 m 273 178 l 212 0 l 90 3 l -34 0 l -34 4 l -31 7 l 334 1017 l 449 1015 l 581 1015 l 940 0 l 817 3 l 694 0 l 633 178 l 273 178 z "},"ɢ":{"ha":901,"x_min":30,"x_max":872,"o":"m 404 503 l 872 503 l 872 119 q 522 -14 715 -14 q 165 102 300 -14 q 30 404 30 216 q 165 708 30 593 q 522 823 300 823 q 769 743 643 823 q 840 689 822 709 l 853 677 l 743 515 q 522 656 595 656 q 324 587 399 656 q 250 404 250 518 q 324 222 250 292 q 522 153 399 153 q 675 218 600 153 l 675 336 l 404 336 l 404 503 z "},"ɪ":{"ha":388,"x_min":99,"x_max":307,"o":"m 202 3 l 100 0 l 99 4 l 100 7 l 100 803 l 99 806 l 100 810 l 202 807 l 305 810 l 307 806 l 305 803 l 305 7 l 307 4 l 305 0 l 202 3 z "},"ɴ":{"ha":876,"x_min":79,"x_max":793,"o":"m 587 810 l 690 807 l 792 810 l 793 806 l 792 803 l 792 0 l 514 0 l 283 427 l 283 7 l 285 4 l 283 0 l 182 3 l 79 0 l 79 810 l 182 807 l 298 807 l 587 271 l 587 810 z "},"ʀ":{"ha":701,"x_min":79,"x_max":735,"o":"m 498 3 l 283 296 l 283 7 l 285 4 l 283 0 l 182 3 l 79 0 l 79 810 l 163 807 l 298 810 q 686 567 686 810 q 473 357 686 401 l 734 4 l 735 0 l 616 3 l 498 3 m 305 499 q 481 567 481 499 q 290 651 481 651 l 283 651 l 283 499 l 305 499 z "},"ʏ":{"ha":716,"x_min":-20,"x_max":736,"o":"m 519 810 l 627 807 l 736 810 l 735 806 l 732 804 l 460 448 l 460 7 l 461 4 l 460 0 l 358 3 l 256 0 l 255 4 l 256 7 l 256 448 l -16 804 l -19 806 l -20 810 l 90 807 l 197 810 l 199 803 l 358 598 l 519 810 z "},"ʙ":{"ha":840,"x_min":79,"x_max":825,"o":"m 624 463 q 770 381 718 441 q 825 232 825 319 q 749 53 825 107 q 492 0 671 0 l 182 3 l 79 0 l 79 810 l 182 807 l 283 807 l 396 810 q 652 761 575 810 q 728 597 728 712 q 624 463 728 509 m 355 513 q 472 532 427 513 q 517 582 517 551 q 404 651 517 651 l 283 648 l 283 513 l 355 513 m 283 161 l 434 160 q 566 182 526 160 q 605 255 605 203 q 548 330 605 301 q 397 358 491 358 l 283 358 l 283 161 z "},"ʜ":{"ha":924,"x_min":79,"x_max":841,"o":"m 635 328 l 283 328 l 283 7 l 285 4 l 283 0 l 182 3 l 79 0 l 79 810 l 182 807 l 283 810 l 285 806 l 283 803 l 283 494 l 635 494 l 635 810 l 738 807 l 840 810 l 841 806 l 840 803 l 840 7 l 841 4 l 840 0 l 738 3 l 635 0 l 635 328 z "},"ʟ":{"ha":671,"x_min":99,"x_max":665,"o":"m 662 0 l 202 3 l 100 0 l 99 4 l 100 7 l 100 803 l 99 806 l 100 810 l 202 807 l 305 810 l 307 806 l 305 803 l 305 170 l 658 167 l 661 168 l 665 167 l 662 83 l 662 0 z "},"ᴀ":{"ha":838,"x_min":-26,"x_max":859,"o":"m 187 0 l 81 3 l -26 0 l -26 4 l -23 7 l 308 810 l 410 807 l 528 807 l 859 0 l 751 3 l 644 0 l 594 126 l 237 126 l 300 281 l 532 281 l 415 571 l 189 7 l 190 7 l 187 0 z "},"ᴄ":{"ha":811,"x_min":30,"x_max":817,"o":"m 817 140 q 479 -14 686 -14 q 153 111 281 -14 q 30 404 30 231 q 153 699 30 579 q 479 823 281 823 q 774 713 631 823 q 802 690 792 700 l 817 677 l 707 515 q 479 656 559 656 q 313 582 378 656 q 250 404 250 510 q 313 228 250 300 q 479 153 378 153 q 707 301 582 153 l 817 140 z "},"ᴅ":{"ha":894,"x_min":79,"x_max":852,"o":"m 182 3 l 79 0 l 79 810 l 182 807 l 283 807 l 363 810 q 852 404 852 810 q 404 0 852 0 l 283 3 l 182 3 m 283 161 l 389 159 q 632 404 632 159 q 372 651 632 651 l 283 648 l 283 161 z "},"ᴇ":{"ha":745,"x_min":79,"x_max":711,"o":"m 708 0 l 182 3 l 79 0 l 79 810 l 182 807 l 688 810 l 688 726 l 690 643 l 688 642 l 684 643 l 283 640 l 283 498 l 663 498 l 661 418 l 663 338 l 283 338 l 283 170 l 704 167 l 708 168 l 711 167 l 708 83 l 708 0 z "},"ᴊ":{"ha":652,"x_min":27,"x_max":570,"o":"m 232 414 l 232 349 q 298 176 232 176 q 365 237 365 176 l 365 803 l 363 806 l 365 810 l 467 807 l 570 810 l 570 237 q 502 56 570 122 q 298 -14 430 -14 q 92 60 159 -14 q 27 290 27 133 l 27 377 l 232 414 z "},"ᴋ":{"ha":811,"x_min":77,"x_max":831,"o":"m 568 810 l 688 807 l 808 810 l 283 288 l 283 7 l 285 4 l 283 0 l 182 3 l 79 0 l 77 4 l 79 7 l 79 803 l 77 806 l 79 810 l 182 807 l 283 810 l 285 806 l 283 803 l 283 514 l 568 810 m 713 3 l 598 0 l 595 7 l 368 369 l 522 524 l 831 0 l 713 3 z "},"ᴍ":{"ha":1111,"x_min":80,"x_max":1028,"o":"m 929 3 l 830 0 l 829 4 l 830 7 l 830 594 l 644 0 l 463 0 l 278 571 l 278 7 l 279 4 l 278 0 l 179 3 l 81 0 l 80 4 l 81 7 l 81 803 l 80 806 l 81 810 l 179 807 l 392 807 l 552 296 l 707 807 l 929 807 l 1027 810 l 1028 806 l 1027 803 l 1027 7 l 1028 4 l 1027 0 l 929 3 z "},"ᴏ":{"ha":959,"x_min":37,"x_max":917,"o":"m 477 153 q 636 222 576 153 q 697 404 697 292 q 635 585 697 511 q 477 656 571 656 q 320 585 382 656 q 256 404 256 513 q 317 222 256 292 q 477 153 378 153 m 37 404 q 163 704 37 583 q 477 823 289 823 q 791 704 666 823 q 917 404 917 583 q 796 102 917 216 q 477 -14 675 -14 q 157 102 279 -14 q 37 404 37 216 z "},"ᴘ":{"ha":701,"x_min":79,"x_max":686,"o":"m 163 807 l 298 810 q 686 567 686 810 q 298 319 686 319 l 283 319 l 283 7 l 285 4 l 283 0 l 182 3 l 79 0 l 79 810 l 163 807 m 307 477 q 481 567 481 477 q 290 651 481 651 l 283 651 l 283 477 l 307 477 z "},"ᴛ":{"ha":661,"x_min":-18,"x_max":681,"o":"m 331 3 l 229 0 l 228 4 l 229 7 l 229 643 l -11 643 l -15 642 l -18 643 q -15 726 -18 674 l -15 810 l 678 810 l 678 726 l 681 643 l 677 642 l 674 643 l 434 643 l 434 7 l 435 4 l 434 0 l 331 3 z "},"ᴜ":{"ha":878,"x_min":69,"x_max":802,"o":"m 69 810 l 172 807 l 274 810 l 275 806 l 274 803 l 274 346 q 435 176 274 176 q 597 346 597 176 l 597 803 l 595 806 l 597 810 l 699 807 l 802 810 l 802 309 q 435 -14 802 -14 q 69 309 69 -14 l 69 810 z "},"ᴠ":{"ha":746,"x_min":-24,"x_max":766,"o":"m 545 810 l 655 807 l 766 810 l 473 0 l 275 0 l -24 810 l 85 807 l 195 810 l 198 806 l 197 803 l 373 275 l 545 810 z "},"ᴡ":{"ha":1004,"x_min":-24,"x_max":1023,"o":"m 803 810 l 913 807 l 1023 810 l 1023 804 l 825 0 l 628 0 l 498 465 l 362 0 l 165 0 l -24 810 l 85 807 l 195 810 l 283 378 l 401 810 l 598 810 l 719 380 l 803 810 z "},"ᴢ":{"ha":742,"x_min":30,"x_max":715,"o":"m 712 0 l 30 0 l 30 167 l 460 643 l 57 643 l 53 642 l 50 643 q 53 726 50 674 l 53 810 l 715 810 l 715 643 l 285 167 l 708 167 l 711 168 l 715 167 l 712 83 l 712 0 z "},"Ẁ":{"ha":1109,"x_min":-31,"x_max":1128,"o":"m 315 1329 l 581 1329 l 642 1126 l 456 1126 l 315 1329 m 884 1017 l 1006 1015 l 1128 1017 l 910 0 l 692 0 l 548 582 l 399 0 l 179 0 l -31 1015 l -30 1017 l 92 1015 l 214 1017 l 312 480 l 439 1017 l 659 1017 l 792 480 l 884 1017 z "},"Ẃ":{"ha":1109,"x_min":-31,"x_max":1128,"o":"m 518 1329 l 784 1329 l 642 1126 l 456 1126 l 518 1329 m 884 1017 l 1006 1015 l 1128 1017 l 910 0 l 692 0 l 548 582 l 399 0 l 179 0 l -31 1015 l -30 1017 l 92 1015 l 214 1017 l 312 480 l 439 1017 l 659 1017 l 792 480 l 884 1017 z "},"Ẅ":{"ha":1109,"x_min":-31,"x_max":1128,"o":"m 556 1347 l 777 1347 l 777 1126 l 556 1126 l 556 1347 m 321 1347 l 543 1347 l 543 1126 l 321 1126 l 321 1347 m 884 1017 l 1006 1015 l 1128 1017 l 910 0 l 692 0 l 548 582 l 399 0 l 179 0 l -31 1015 l -30 1017 l 92 1015 l 214 1017 l 312 480 l 439 1017 l 659 1017 l 792 480 l 884 1017 z "},"Ẽ":{"ha":842,"x_min":72,"x_max":810,"o":"m 171 1126 q 216 1283 171 1223 q 335 1343 260 1343 q 445 1308 399 1343 q 511 1271 491 1271 q 538 1329 538 1271 l 689 1329 q 644 1172 689 1232 q 525 1112 600 1112 q 415 1149 461 1112 q 349 1184 369 1184 q 321 1126 321 1184 l 171 1126 m 807 0 l 187 3 l 73 0 l 72 4 l 73 7 l 73 1010 l 72 1015 l 73 1017 l 187 1015 l 787 1017 l 787 925 l 789 831 l 301 830 l 301 613 l 755 613 l 758 614 l 762 613 l 760 525 l 762 437 l 758 435 l 755 437 l 301 437 l 301 187 l 810 186 l 807 92 l 807 0 z "},"Ỳ":{"ha":799,"x_min":-22,"x_max":819,"o":"m 164 1329 l 430 1329 l 492 1126 l 305 1126 l 164 1329 m 593 1015 l 595 1017 l 707 1015 l 819 1017 l 513 448 l 513 0 l 399 3 l 285 0 l 283 4 l 285 7 l 285 448 l -22 1017 l 91 1015 l 202 1017 l 205 1015 l 205 1010 l 399 646 l 593 1010 l 593 1015 z "},"–":{"ha":492,"x_min":-24,"x_max":518,"o":"m -24 441 l 518 441 l 518 273 l -24 273 l -24 441 z "},"—":{"ha":886,"x_min":37,"x_max":850,"o":"m 37 441 l 850 441 l 850 273 l 37 273 l 37 441 z "},"‘":{"ha":294,"x_min":14,"x_max":286,"o":"m 15 785 l 14 787 q 41 915 14 860 q 134 1001 69 970 q 286 994 209 1035 q 172 917 157 955 q 247 878 214 910 q 286 783 286 838 q 246 687 286 727 q 151 647 206 647 q 55 687 95 647 q 15 783 15 727 l 15 785 z "},"’":{"ha":294,"x_min":114,"x_max":387,"o":"m 385 879 l 387 879 q 359 751 387 806 q 266 665 331 696 q 114 671 191 631 q 228 749 243 711 q 155 788 186 755 q 114 883 114 827 q 154 979 114 939 q 250 1019 194 1019 q 345 979 305 1019 q 385 883 385 939 l 385 879 z "},"“":{"ha":736,"x_min":125,"x_max":727,"o":"m 456 789 l 454 791 q 482 919 454 864 q 575 1005 510 974 q 727 998 650 1039 q 613 921 598 959 q 688 882 655 914 q 727 787 727 842 q 687 691 727 731 q 591 651 647 651 q 496 691 536 651 q 456 787 456 731 l 456 789 m 126 787 l 125 788 q 153 916 125 861 q 245 1002 180 971 q 397 996 320 1036 q 283 918 269 956 q 358 879 326 911 q 397 784 397 840 q 357 688 397 728 q 262 648 317 648 q 166 688 206 648 q 126 784 126 728 l 126 787 z "},"”":{"ha":736,"x_min":125,"x_max":727,"o":"m 396 878 l 397 878 q 370 749 397 804 q 277 663 342 694 q 125 670 202 629 q 239 747 254 709 q 165 787 197 754 q 125 882 125 826 q 165 977 125 937 q 260 1017 205 1017 q 356 977 316 1017 q 396 882 396 937 l 396 878 m 726 880 l 727 880 q 699 752 727 807 q 606 666 671 697 q 454 673 532 632 q 568 750 583 712 q 495 789 526 757 q 454 884 454 829 q 494 980 454 940 q 590 1020 534 1020 q 686 980 646 1020 q 726 884 726 940 l 726 880 z "},"†":{"ha":765,"x_min":50,"x_max":715,"o":"m 715 609 l 484 609 l 484 -68 l 281 -68 l 281 609 l 50 609 l 50 787 l 281 787 l 281 1017 l 484 1017 l 484 787 l 715 787 l 715 609 z "},"‡":{"ha":765,"x_min":50,"x_max":715,"o":"m 50 340 l 281 340 l 281 609 l 50 609 l 50 787 l 281 787 l 281 1017 l 484 1017 l 484 787 l 715 787 l 715 609 l 484 609 l 484 340 l 715 340 l 715 163 l 484 163 l 484 -68 l 281 -68 l 281 163 l 50 163 l 50 340 z "},"•":{"ha":294,"x_min":14,"x_max":285,"o":"m 149 515 q 245 475 205 515 q 285 380 285 435 q 245 284 285 324 q 149 244 205 244 q 54 284 94 244 q 14 380 14 324 q 54 475 14 435 q 149 515 94 515 z "},"…":{"ha":940,"x_min":11,"x_max":929,"o":"m 146 270 q 242 230 202 270 q 282 134 282 190 q 242 39 282 79 q 146 -1 202 -1 q 51 39 91 -1 q 11 134 11 79 q 51 230 11 190 q 146 270 91 270 m 469 270 q 565 230 525 270 q 605 134 605 190 q 565 39 605 79 q 469 -1 525 -1 q 374 39 414 -1 q 334 134 334 79 q 374 230 334 190 q 469 270 414 270 m 793 270 q 889 230 849 270 q 929 134 929 190 q 889 39 929 79 q 793 -1 849 -1 q 698 39 738 -1 q 658 134 658 79 q 698 230 658 190 q 793 270 738 270 z "},"‰":{"ha":1028,"x_min":53,"x_max":1389,"o":"m 1274 190 q 1211 288 1274 288 q 1149 190 1149 288 q 1211 92 1149 92 q 1274 190 1274 92 m 1211 -14 q 1078 42 1126 -14 q 1034 190 1034 96 q 1078 338 1034 283 q 1211 393 1126 393 q 1344 338 1297 393 q 1389 190 1389 283 q 1344 42 1389 96 q 1211 -14 1297 -14 m 860 190 q 798 288 860 288 q 735 190 735 288 q 798 92 735 92 q 860 190 860 92 m 798 -14 q 665 42 712 -14 q 620 190 620 96 q 665 338 620 283 q 798 393 712 393 q 930 338 883 393 q 975 190 975 283 q 930 42 975 96 q 798 -14 883 -14 m 168 827 q 231 730 168 730 q 294 827 294 730 q 231 925 294 925 q 168 827 168 925 m 231 1031 q 365 975 317 1031 q 410 827 410 921 q 365 680 410 734 q 231 624 317 624 q 98 680 144 624 q 53 827 53 734 q 98 975 53 921 q 231 1031 144 1031 m 772 1017 l 842 1017 l 256 0 l 186 0 l 772 1017 z "},"‹":{"ha":296,"x_min":26,"x_max":393,"o":"m 393 637 l 203 353 l 393 68 l 216 68 l 26 353 l 216 637 l 393 637 z "},"›":{"ha":296,"x_min":5,"x_max":373,"o":"m 183 637 l 373 353 l 183 68 l 5 68 l 195 353 l 5 637 l 183 637 z "},"⁄":{"ha":757,"x_min":50,"x_max":707,"o":"m 636 1017 l 707 1017 l 121 0 l 50 0 l 636 1017 z "},"€":{"ha":890,"x_min":-60,"x_max":894,"o":"m -43 468 l 26 468 q 24 509 24 488 q 26 549 24 529 l -43 549 l -27 663 l 45 663 q 214 926 90 826 q 521 1031 345 1031 q 894 890 746 1031 l 773 709 q 521 845 633 845 q 294 663 362 845 l 587 663 l 571 549 l 270 549 q 269 509 269 529 q 270 468 269 488 l 571 468 l 555 354 l 294 354 q 521 172 362 172 q 773 315 654 172 l 894 136 q 521 -14 769 -14 q 214 91 345 -14 q 45 354 90 191 l -60 354 l -43 468 z "},"−":{"ha":770,"x_min":37,"x_max":735,"o":"m 37 419 l 735 419 l 735 294 l 37 294 l 37 419 z "},"∕":{"ha":594,"x_min":-31,"x_max":625,"o":"m 555 1017 l 625 1017 l 39 0 l -31 0 l 555 1017 z "},"∙":{"ha":294,"x_min":14,"x_max":285,"o":"m 149 515 q 245 475 205 515 q 285 380 285 435 q 245 284 285 324 q 149 244 205 244 q 54 284 94 244 q 14 380 14 324 q 54 475 14 435 q 149 515 94 515 z "},"ꜰ":{"ha":697,"x_min":79,"x_max":690,"o":"m 283 338 l 283 7 l 285 4 l 283 0 l 182 3 l 79 0 l 79 810 l 182 807 l 688 810 l 688 726 l 690 643 l 688 642 l 684 643 l 283 640 l 283 498 l 650 498 l 647 418 l 650 338 l 283 338 z "},"ꜱ":{"ha":735,"x_min":11,"x_max":719,"o":"m 45 129 q 22 152 31 141 l 156 317 q 399 165 288 165 q 515 227 515 165 q 335 313 515 289 q 11 587 11 357 q 96 758 11 694 q 321 823 180 823 q 625 736 467 823 q 671 708 658 720 q 685 699 678 704 l 567 544 q 321 642 438 642 q 222 592 222 642 q 391 519 222 543 q 719 227 719 476 q 639 53 719 115 q 399 -14 553 -14 q 64 113 221 -14 l 45 129 z "},"":{"ha":723,"x_min":-23,"x_max":750,"o":"m 503 810 l 625 807 l 750 810 l 749 806 l 745 803 l 483 403 l 736 0 l 627 3 l 518 0 l 515 7 l 373 233 l 225 7 l 222 0 l 100 3 l -23 0 l 252 423 l 9 810 l 119 807 l 228 810 l 231 803 l 363 593 l 503 810 z "}}}
